<?xml version="1.0" standalone="no"?>
<!DOCTYPE svg PUBLIC "-//W3C//DTD SVG 1.1//EN" "http://www.w3.org/Graphics/SVG/1.1/DTD/svg11.dtd" >
<!--
2013-9-30: Created.
-->
<svg>
<metadata>
Created by iconfont
</metadata>
<defs>

<font id="gfs-icon" horiz-adv-x="1024" >
  <font-face
    font-family="gfs-icon"
    font-weight="500"
    font-stretch="normal"
    units-per-em="1024"
    ascent="896"
    descent="-128"
  />
    <missing-glyph />
    
    <glyph glyph-name="x" unicode="x" horiz-adv-x="1001"
d="M281 543q-27 -1 -53 -1h-83q-18 0 -36.5 -6t-32.5 -18.5t-23 -32t-9 -45.5v-76h912v41q0 16 -0.5 30t-0.5 18q0 13 -5 29t-17 29.5t-31.5 22.5t-49.5 9h-133v-97h-438v97zM955 310v-52q0 -23 0.5 -52t0.5 -58t-10.5 -47.5t-26 -30t-33 -16t-31.5 -4.5q-14 -1 -29.5 -0.5
t-29.5 0.5h-32l-45 128h-439l-44 -128h-29h-34q-20 0 -45 1q-25 0 -41 9.5t-25.5 23t-13.5 29.5t-4 30v167h911zM163 247q-12 0 -21 -8.5t-9 -21.5t9 -21.5t21 -8.5q13 0 22 8.5t9 21.5t-9 21.5t-22 8.5zM316 123q-8 -26 -14 -48q-5 -19 -10.5 -37t-7.5 -25t-3 -15t1 -14.5
t9.5 -10.5t21.5 -4h37h67h81h80h64h36q23 0 34 12t2 38q-5 13 -9.5 30.5t-9.5 34.5q-5 19 -11 39h-368zM336 498v228q0 11 2.5 23t10 21.5t20.5 15.5t34 6h188q31 0 51.5 -14.5t20.5 -52.5v-227h-327z" />
    

    
    <glyph glyph-name="delete" unicode="&#59185;" d="M842.88 569.344c-20.16 0-37.952-16.384-37.952-36.608v-547.52a36.48 36.48 0 0 0-36.928-36.096H256.064a36.672 36.672 0 0 0-37.12 36.096v549.12c0 20.224-14.72 36.608-34.944 36.608-20.224 0-35.008-16.384-35.008-36.608v-549.056c0-60.48 46.592-113.088 107.072-113.088h512.064c60.48 0 112.896 52.672 112.896 113.088V532.864c-0.128 20.096-17.92 36.48-38.08 36.48z m-406.912-437.888V533.76c0 20.16-14.784 36.544-35.008 36.544-20.224 0-35.008-16.256-35.008-36.544v-402.304c0-20.16 14.784-36.608 35.008-36.608 20.224 0 35.008 16.448 35.008 36.608z m221.952 0V533.76c0 20.16-17.792 36.544-37.952 36.544-20.224 0-38.016-16.256-38.016-36.544v-402.304c0-20.16 17.792-36.608 38.016-36.608 20.16 0 37.952 16.448 37.952 36.608z m329.408 583.552h-182.4V789.76c0 60.48-49.28 106.304-109.312 106.304H329.088c-60.416 0-110.08-45.824-110.08-106.24v-74.752H36.608c-20.288 0-36.608-14.784-36.608-35.008 0-20.16 16.32-34.944 36.608-34.944h950.784c20.224 0 36.608 14.72 36.608 34.944 0 20.224-16.384 35.008-36.672 35.008z m-258.368 0H289.92V789.76c0 20.224 19.072 36.288 39.168 36.288h366.528c20.032 0 33.28-15.744 33.28-36.288v-74.688z"  horiz-adv-x="1024" />

    
    <glyph glyph-name="chevron-left" unicode="&#58883;" d="M754.433039-127.99995999999999a39.946591 39.946591 0 0 0-27.910501 11.314526L243.164775 352.26108999999997a45.097757 45.097757 0 0 0-0.100217 64.630097l0.080174 0.080174L724.708606 884.66517a40.091906 40.091906 0 0 0 55.871111-57.514673L324.93202 384.64128l457.421542-443.781975a40.086895 40.086895 0 0 0-27.920523-68.859265z"  horiz-adv-x="1024" />

    
    <glyph glyph-name="chevron-right" unicode="&#58886;" d="M269.566025-127.99995999999999a39.946591 39.946591 0 0 1 27.910501 11.314526l483.357763 468.946524a45.097757 45.097757 0 0 1 0.100217 64.630097l-0.080174 0.080174L299.290458 884.66517A40.091906 40.091906 0 0 1 243.419347 827.150497l455.647697-442.509217L241.645502-59.14069500000005a40.086895 40.086895 0 0 1 27.920523-68.859265z"  horiz-adv-x="1024" />

    
    <glyph glyph-name="search" unicode="&#58890;" d="M1012.8-61.60000000000002L750.4 200.79999999999995c60.9 73 97.5 167 97.5 269.5 0 232.6-188.6 421.1-421.1 421.1C194.3 891.4 5.6 702.8 5.6 470.2s188.6-421.1 421.1-421.1c102.5 0 196.5 36.6 269.5 97.5l262.4-262.4c15-15 39.2-15 54.1 0 15 15 15 39.2 0.1 54.2z m-586 187.3C236.5 125.70000000000005 82.2 280 82.2 470.3S236.5 814.8 426.8 814.8s344.6-154.3 344.6-344.6-154.3-344.5-344.6-344.5z"  horiz-adv-x="1024" />

    
    <glyph glyph-name="slice" unicode="&#58892;" d="M943.4 465.8c8.7 8 11.2 15.7 9.1 22s-8.7 11.2-19.6 12.3l-257.5 24.2c-14.6 2.2-31.4 14.3-39 29.2l-104.8 233.8c-4.7 10.4-11.5 15.2-18.3 15.2-6.8 0-13.5-4.8-18.3-15.3l-108-235.2c-6.8-13.2-23.5-25.3-40.4-27.8l-254.7-23.9c-11.5-1.2-18.1-6.1-20.2-12.5-2.1-6.3 0.3-14 9.1-22l190.4-177.6c10.7-10.5 17.2-30.6 14.7-47.1l-51.7-248.1c-2.4-11.5 0-21.7 1.8-23.9 3.8-4.6 15.1-5.6 27.7 1.5l224.3 125.9c11.3 5.9 36.5 5.9 49.3-0.6l223.2-125.3c10.7-6 20.7-6.2 26.5 1 3.4 4.1 5.2 10 3.1 20.1l-53.8 274 7.6 11.8c2.4 3.7 5.6 7.4 9.8 11.2l189.7 177.1zM514.1 31.3h-3.9l1.9-1.1 2 1.1zM297.8-90.2c-40-22.3-88.4-18.2-115.7 15.2-15.3 18.7-22.7 50.5-16.1 82.3l49.5 237.6-182 169.7c-27.9 25.5-39.2 61.4-28 95.1 11.1 33.7 41.6 55.9 79.5 59.9l243.9 22.8 102.7 223.8c15.6 34.2 46.2 56 81.7 56s66.1-21.8 81.8-56.1l100.2-223.6 244.5-23c37.3-3.9 67.8-26.1 78.9-59.8 11.1-33.7-0.1-69.6-27.9-95l-179.8-167.7 47.4-241.5c6.5-31.9-1.6-58.7-17.5-78.1-32.1-39.1-77.8-38-114.5-17.5l-214.2 120.3-214.4-120.4z"  horiz-adv-x="1024" />

    
    <glyph glyph-name="zhuanfa" unicode="&#58894;" d="M266.655838 586.201015C151.780711 450.53401 180.88934 271.723858 181.928934 264.446701c3.118782-18.71269 19.232487-31.707614 37.945178-31.707615 21.831472 0 38.984772 17.153299 38.984771 38.464975 0 3.118782-0.519797 5.717766-1.039594 8.836548 0 12.994924 2.598985 55.618274 39.504569 97.202031C336.828426 421.945178 423.634518 473.924873 613.360406 480.162437v-124.231473c0-14.554315 8.316751-27.549239 21.311675-34.306599 12.994924-6.237563 28.588832-5.19797 40.024366 3.638579l330.071066 249.502538c9.356345 7.277157 15.074112 18.71269 15.074111 30.668021 0 11.95533-5.717766 23.390863-15.074111 30.66802L674.696447 885.604061c-11.435533 8.836548-27.029442 10.395939-40.024366 3.638579-12.994924-6.237563-21.311675-19.752284-21.311675-34.306599V729.664975c-155.419289-6.75736-271.853807-55.098477-346.704568-143.46396m385.169543 67.573604c21.311675 0 38.464975 17.153299 38.464974 38.464975V778.006091l228.190863-172.572588-228.190863-172.572589V518.627411c0 21.311675-17.153299 38.464975-38.464974 38.464975-165.295431 0-289.526904-30.66802-370.095432-90.964467 10.395939 24.430457 24.430457 48.341117 43.662944 71.212183 65.494416 76.929949 175.171574 116.434518 326.432488 116.434517m330.071066-333.189847c-21.311675 0-38.464975-17.153299-38.464975-38.464975v-231.829442c0-54.57868-44.702538-99.281218-99.281218-99.281218H177.250761c-55.098477 0-99.281218 44.702538-99.281218 99.281218V717.709645c0 54.57868 44.702538 99.281218 99.281218 99.281218h308.759391v1.559391c16.113706 4.678173 27.549239 19.232487 27.549239 36.385787s-11.435533 31.707614-27.549239 36.385786V893.401015H177.250761C80.048731 893.401015 1.039594 814.911675 1.039594 717.709645v-667.41929c0-96.682234 79.009137-175.691371 176.211167-175.69137h666.899493c97.20203 0 176.211168 79.009137 176.211167 175.69137v231.829442c-0.519797 21.311675-17.673096 38.464975-38.464974 38.464975"  horiz-adv-x="1024" />

    
    <glyph glyph-name="add" unicode="&#58903;" d="M5.4 385.2c0 28.9 23.5 52.3 52.3 52.3h907c28.9 0 52.3-23.5 52.3-52.3 0-28.9-23.5-52.3-52.3-52.3h-907c-28.9 0-52.3 23.4-52.3 52.3zM511.2 891c28.8 0 52.2-23.4 52.2-52.1v-904.3c0-28.8-23.4-52.1-52.2-52.1-28.8 0-52.2 23.4-52.2 52.1V838.9C459 867.7 482.4 891 511.2 891z"  horiz-adv-x="1024" />

    
    <glyph glyph-name="minus" unicode="&#58904;" d="M5.4 385.2c0 28.9 23.5 52.3 52.3 52.3h907c28.9 0 52.3-23.5 52.3-52.3 0-28.9-23.5-52.3-52.3-52.3h-907c-28.9 0-52.3 23.4-52.3 52.3z"  horiz-adv-x="1024" />

    
    <glyph glyph-name="radio" unicode="&#58905;" d="M512.4-125.60000000000002C230.9-125.60000000000002 2.8 102.60000000000002 2.8 384 2.8 665.4 230.9 893.7 512.4 893.7S1022 665.5 1022 384s-228.2-509.6-509.6-509.6z m0 48.6c254.6 0 461.1 206.4 461.1 461S767 845.1 512.4 845.1C257.8 845.1 51.3 638.7 51.3 384c0-254.7 206.4-461 461.1-461z"  horiz-adv-x="1024" />

    
    <glyph glyph-name="radio-checked" unicode="&#58906;" d="M512.4-125.60000000000002C230.9-125.60000000000002 2.8 102.60000000000002 2.8 384 2.8 665.4 230.9 893.7 512.4 893.7S1022 665.5 1022 384s-228.2-509.6-509.6-509.6z m0 48.6c254.6 0 461.1 206.4 461.1 461S767 845.1 512.4 845.1C257.8 845.1 51.3 638.7 51.3 384c0-254.7 206.4-461 461.1-461zM444.2 191.79999999999995c6.2 0 12.3 2.3 17 7L770.4 508c9.2 9.2 9.3 24.7-0.1 34.2-9.5 9.5-24.8 9.5-34.2 0.1L444.2 250.39999999999998 272.6 422c-9.5 9.5-24.8 9.5-34.3 0-9.5-9.5-9.5-24.8 0-34.3l188.8-188.8c4.7-4.7 10.9-7.1 17-7.1h0.1z"  horiz-adv-x="1024" />

    
    <glyph glyph-name="checkbox" unicode="&#58907;" d="M2 792.3C2 848.5 47.7 894 103.7 894h813.6C973.5 894 1019 848.3 1019 792.3v-813.6c0-56.2-45.7-101.7-101.7-101.7H103.7C47.5-123 2-77.29999999999995 2-21.299999999999955V792.3z m50.8 0v-813.6c0-28 22.8-50.9 50.9-50.9h813.6c28 0 50.9 22.8 50.9 50.9V792.3c0 28-22.8 50.9-50.9 50.9H103.7c-28 0-50.9-22.9-50.9-50.9z"  horiz-adv-x="1024" />

    
    <glyph glyph-name="checkbox-checked" unicode="&#58908;" d="M2 792.3C2 848.5 47.7 894 103.7 894h813.6C973.5 894 1019 848.3 1019 792.3v-813.6c0-56.2-45.7-101.7-101.7-101.7H103.7C47.5-123 2-77.29999999999995 2-21.299999999999955V792.3z m50.8 0v-813.6c0-28 22.8-50.9 50.9-50.9h813.6c28 0 50.9 22.8 50.9 50.9V792.3c0 28-22.8 50.9-50.9 50.9H103.7c-28 0-50.9-22.9-50.9-50.9zM464.5 209.5c6.5 0 12.9 2.4 17.8 7.4l323.9 323.9c9.6 9.6 9.8 25.9-0.1 35.8-10 10-26 10-35.8 0.1L464.5 270.9 284.7 450.7c-9.9 9.9-25.9 10-35.9 0-9.9-9.9-9.9-26 0-35.9L446.6 217c4.9-4.9 11.4-7.4 17.8-7.5h0.1z"  horiz-adv-x="1024" />

    
    <glyph glyph-name="success" unicode="&#58909;" d="M399.9 37.39999999999998c11.5 0 23 4.4 31.7 13.1l576 576c17.2 17.2 17.4 46-0.3 63.7-17.8 17.8-46.2 17.8-63.7 0.3L399.9 146.70000000000005 80.2 466.5c-17.6 17.6-46.1 17.7-63.9 0-17.7-17.7-17.7-46.3 0-63.9L368 50.799999999999955c8.8-8.8 20.2-13.2 31.7-13.3l0.2-0.1z"  horiz-adv-x="1024" />

    
    <glyph glyph-name="share" unicode="&#58916;" d="M802 442.8c31.9 0 57.8-25.8 57.8-57.8 0-31.9-25.8-57.8-57.8-57.8-31.9 0-57.8 25.8-57.8 57.8 0.1 32 25.9 57.8 57.8 57.8z m-577.9 0c31.9 0 57.8-25.8 57.8-57.8 0-31.9-25.8-57.8-57.8-57.8-32 0-57.8 25.8-57.8 57.8 0 32 25.9 57.8 57.8 57.8z m288.9 0c31.9 0 57.8-25.8 57.8-57.8 0-31.9-25.8-57.8-57.8-57.8-31.9 0-57.8 25.8-57.8 57.8 0.1 32 25.9 57.8 57.8 57.8z"  horiz-adv-x="1024" />

    
    <glyph glyph-name="close" unicode="&#58917;" d="M152.931 26.628000000000043c-20.435 20.435-20.365 53.599 0 73.963l641.346 641.346c20.435 20.435 53.599 20.365 73.963 0 20.435-20.435 20.365-53.599 0-73.963l-641.346-641.346c-20.435-20.435-53.528-20.435-73.963 0zM152.931 741.937c20.365 20.365 53.457 20.365 73.751 0.071l639.437-639.437c20.365-20.365 20.294-53.387-0.071-73.751s-53.457-20.365-73.751-0.071l-639.437 639.437c-20.365 20.365-20.294 53.387 0.071 73.751z"  horiz-adv-x="1024" />

    
    <glyph glyph-name="yinsi" unicode="&#58918;" d="M299.3 385.1c0 116.7 94.9 211.3 211.9 211.3s211.9-94.6 211.9-211.3c0-116.7-94.9-211.3-211.9-211.3s-211.9 94.6-211.9 211.3z m692.2 72.1c-79.2 100-271.3 266.2-480.3 266.2-209.6 0-401.7-166.2-480.3-266.2-18-22.6-27.4-47.3-27.9-72.1 0.6-24.7 10.5-49.5 27.9-72.1 78.6-100 270.7-266.2 480.3-266.2 209.6 0 401.1 166.2 480.3 266.3 18 22.6 27.9 47.3 28.5 72.1-1.1 24.6-10.5 49.4-28.5 72z m-607.8-72.1c0-69.9 57.1-126.9 126.9-126.9 69.8 0 126.9 57 126.9 126.9v1.1c-13.4-14-32-22-53-22-40.8 0-73.9 33.3-73.9 74.2 0 29.6 17.5 54.8 41.9 66.7-13.4 4.8-27.4 7-41.9 7-69.8-0.1-126.9-57.1-126.9-127z"  horiz-adv-x="1024" />

    
    <glyph glyph-name="expand-less" unicode="&#58920;" d="M1024 141.56600000000003c0 0.016 0 0.035 0 0.054 0 10.839-4.315 20.668-11.324 27.865l-468.936 483.35c-8.206 8.448-19.672 13.691-32.364 13.691-12.642 0-24.069-5.202-32.258-13.582l-0.088-0.089-467.695-481.565c-6.969-7.203-11.263-17.031-11.264-27.862 0-22.142 17.95-40.092 40.092-40.092 11.24 0 21.399 4.625 28.679 12.076l442.516 455.655 443.781-457.421c7.294-7.512 17.489-12.174 28.772-12.174 22.14 0 40.087 17.948 40.087 40.087 0 0.001 0 0.006 0 0.007z"  horiz-adv-x="1024" />

    
    <glyph glyph-name="expand-more" unicode="&#58921;" d="M0 626.434c0-0.016 0-0.035 0-0.054 0-10.839 4.315-20.668 11.324-27.865l468.936-483.35c8.206-8.448 19.672-13.691 32.364-13.691 12.642 0 24.069 5.202 32.258 13.582l0.088 0.089 467.695 481.565c6.969 7.203 11.263 17.031 11.264 27.862 0 22.142-17.95 40.092-40.092 40.092-11.24 0-21.399-4.625-28.679-12.076l-442.516-455.655-443.781 457.421c-7.294 7.512-17.489 12.174-28.772 12.174-22.14 0-40.087-17.948-40.087-40.087 0-0.001 0-0.006 0-0.007z"  horiz-adv-x="1024" />

    
    <glyph glyph-name="location" unicode="&#58922;" d="M536.5-119.39999999999998c-4.1-3.2-8.9-4.8-13.8-4.8s-9.8 1.6-13.8 4.8c-15 11.8-367.8 338.3-367.8 630.9C140.9 721.9 312.2 893 522.6 893s381.7-171.1 381.7-381.5c0-292.7-352.8-619.1-367.8-630.9m-13.9 809.1c-98.4 0-178.1-79.7-178.1-178.1 0-98.4 79.7-178.1 178.1-178.1 98.4 0 178.1 79.7 178.1 178.1 0 98.3-79.7 178.1-178.1 178.1"  horiz-adv-x="1024" />

    
    <glyph glyph-name="question-circle" unicode="&#58923;" d="M513.2-123.89999999999998c-280 0-507.8 227.8-507.8 507.8S233.2 891.7 513.2 891.7 1021 663.9 1021 383.9s-227.8-507.8-507.8-507.8z m0 937.5c-236.9 0-429.7-192.7-429.7-429.7s192.7-429.7 429.7-429.7S942.8 147 942.8 383.9c0 236.9-192.7 429.7-429.6 429.7zM549.1 206.60000000000002c10.9-9.9 16.4-23.2 16.4-39.8 0-15.6-5.7-29.2-17.2-40.6-11.5-10.4-25-15.6-40.6-15.6-16.1 0-29.7 5.5-40.6 16.4-10.9 10.9-16.4 24.2-16.4 39.8 0 16.7 5.5 29.9 16.4 39.8 10.4 10.4 24 15.6 40.6 15.6 17.2 0 31-5.2 41.4-15.6zM643.6 637.8c31.2-27.1 46.9-64.3 46.9-111.7 0-38-9.9-69.8-29.7-95.3-6.8-8.3-28.6-28.6-65.6-60.9-14.6-12-25.5-25.5-32.8-40.6-8.3-15.1-12.5-32.3-12.5-51.6 0-7.3-5.9-13.3-13.3-13.3h-57c-7.3 0-13.3 5.9-13.3 13.3 0 30.2 5.2 54.9 15.6 74.2 9.9 20.8 39.3 53.1 88.3 96.9l13.3 14.8c14.6 18.7 21.9 37.8 21.9 57 0 26.6-7.6 47.9-22.7 64.1-15.6 15.6-37.8 23.4-66.4 23.4-35.4 0-60.9-11.2-76.6-33.6-9.1-12.1-15.2-27.4-18.4-46-3.4-19.5-20.3-33.7-40.1-33.7-25.8 0-45.1 23.7-39.9 49 7 34.2 21.8 62.6 44.5 85.3 32.8 33.3 78.1 50 135.9 50 50.6 0.1 91.2-13.7 121.9-41.3z"  horiz-adv-x="1024" />

    
    <glyph glyph-name="decline" unicode="&#58925;" d="M702.6 504.7h191.2c26.4 0 41.9-29.6 27-51.3L541.8-99c-13-19-41-19-54 0l-379 552.3c-14.9 21.7 0.6 51.3 27 51.3H327v343c0 18.1 14.7 32.8 32.8 32.8H670c18.1 0 32.8-14.7 32.8-32.8v-342.9h-0.2z"  horiz-adv-x="1024" />

    
    <glyph glyph-name="rise" unicode="&#58926;" d="M321.4 263.29999999999995h-191.2c-26.401 0-41.9 29.6-26.999 51.3l379 552.4c12.999 19 40.999 19 54 0l379-552.301c14.9-21.7-0.6-51.3-26.999-51.3h-191.2v-343.001c0-18.101-14.7-32.801-32.8-32.8h-310.201c-18.101 0-32.801 14.7-32.8 32.8l0.199 342.9z"  horiz-adv-x="1024" />

    
    <glyph glyph-name="mendianpingjia" unicode="&#58927;" d="M517.299925-127.98545999999999C223.604095-130.1854290000001-14.79252 117.51105399999994 4.20721 415.806818 18.007014 631.5037560000001 170.504849 820.001079 379.501881 875.100297 509.100041 909.299811 642.29815 892.700047 755.296545 831.90091c16.399767-8.899874 21.299698-30.399568 11.29984-46.199344-9.399867-14.999787-28.699592-19.199727-44.299371-10.899845-99.398589 52.999247-216.696923 66.799052-330.595306 35.499496C223.204101 763.801877 96.205904 616.703966 73.106232 443.406426 36.60675 169.510316 250.603712-64.086368 516.799932-62.086396000000036c245.09652 1.799974 442.99371 202.697122 441.193735 447.793642-0.499993 61.099132-13.599807 121.798271-38.199457 177.297482-7.199898 16.099771-1.499979 34.899504 13.999801 43.199387l0.199997 0.099998c16.399767 8.799875 37.399469 2.399966 45.09936-14.499794 28.89959-64.299087 44.299371-134.698087 44.799364-205.59708 1.999972-281.496003-225.196802-512.092729-506.592807-514.192699zM744.3967 207.40977699999996H409.90145c-16.999759 0-30.799563 13.799804-30.799563 30.799563V240.00931500000002c0 16.999759 13.799804 30.799563 30.799563 30.799562h334.395252c16.999759 0 30.799563-13.799804 30.799562-30.799562v-1.799975c0.099999-16.999759-13.699805-30.799563-30.699564-30.799563zM300.303006 479.10592m-31.499553 0a31.499553 31.499553 0 1 1 62.999106 0 31.499553 31.499553 0 1 1-62.999106 0ZM299.703014 239.509322m-31.499552 0a31.499553 31.499553 0 1 1 62.999105 0 31.499553 31.499553 0 1 1-62.999105 0ZM951.49376 740.3022109999999L583.898979 454.006276c-13.39981-10.499851-32.799534-8.199884-43.299385 5.199926l-1.099984 1.39998c-10.499851 13.39981-8.199884 32.799534 5.199926 43.299385l367.59478 286.395934c13.39981 10.499851 32.799534 8.199884 43.299385-5.199926l1.099985-1.39998c10.499851-13.499808 8.199884-32.799534-5.199926-43.399384zM591.898865 476.905951v1.799974c0 16.999759-13.799804 30.799563-30.799562 30.799563H551.999432l-7.299896-5.699919c-13.39981-10.499851-15.699777-29.899575-5.199926-43.299385l1.099984-1.39998c6.099913-7.699891 15.099786-11.799832 24.199656-11.799833 2.899959 0 5.799918 0.599991 8.699877 1.39998 10.799847 4.89993 18.399739 15.599778 18.399738 28.1996zM529.099757 452.406299c-7.299896 9.199869-10.499851 20.799705-9.099871 32.39954 1.099984 9.599864 5.899916 17.899746 12.499823 24.699649H409.90145c-16.999759 0-30.799563-13.799804-30.799563-30.799563v-1.799974c0-16.999759 13.799804-30.799563 30.799563-30.799563h126.798199c-2.499965 2.09997-5.299925 3.49995-7.599892 6.299911z"  horiz-adv-x="1024" />

    
    <glyph glyph-name="tuandanpingjia" unicode="&#58929;" d="M739.2 548.4H291.9c-15.9 0-28.9 12.9-28.9 28.9V579c0 15.9 12.9 28.9 28.9 28.9h447.3c15.9 0 28.9-12.9 28.9-28.9v-1.7c0-15.9-13-28.9-28.9-28.9zM739.2 101.29999999999995H291.9c-15.9 0-28.9 12.9-28.9 28.9v1.7c0 15.9 12.9 28.9 28.9 28.9h447.3c15.9 0 28.9-12.9 28.9-28.9v-1.7c0-15.9-13-28.9-28.9-28.9zM739.2 324.9H291.9c-15.9 0-28.9 12.9-28.9 28.9v1.7c0 15.9 12.9 28.9 28.9 28.9h447.3c15.9 0 28.9-12.9 28.9-28.9v-1.7c0-16-13-28.9-28.9-28.9zM798.7 865C781.2 865 767 850.9 767 833.4v-3.8c0-17.5 14.2-31.7 31.7-31.7 55.6 0 100.6-45 100.6-100.6v-655.7c0-55.6-45-100.6-100.6-100.6H232.4c-55.6 0-100.6 45-100.6 100.6V697.4c0 55.6 45 100.6 100.6 100.6 17.5 0 31.7 14.2 31.7 31.7v3.8c0 17.5-14.2 31.7-31.7 31.7C139.8 865 64.7 790 64.7 697.4v-655.7c0-92.6 75.1-167.7 167.7-167.7h566.3c92.6 0 167.7 75.1 167.7 167.7V697.4C966.3 790 891.3 865 798.7 865zM614 816.8H417.1c-19.7 0-35.7 16-35.7 35.7v4.6c0 19.7 16 35.7 35.7 35.7H614c19.7 0 35.7-16 35.7-35.7v-4.6c0-19.7-16-35.7-35.7-35.7z"  horiz-adv-x="1024" />

    
    <glyph glyph-name="shangjiawenda" unicode="&#58930;" d="M863.6 855.6H364.8c-84.8 0-153.7-69-153.7-153.7v-14.1h-51.2c-84.8 0-153.7-69-153.7-153.7v-328c0-80.2 61.7-146.2 140.1-153.1v-104.7c0-13.9 15-22.5 27-15.6L380 52.299999999999955h155.6c62.3 0 115 37.9 138.9 91.4 1.1 1.9 2.1 3.8 2.8 5.9 0.3 0.8 0.7 1.5 1 2.2l-0.3 1.2c0.4 2 1.2 3.8 1.2 5.9 0 16.9-13.7 30.5-30.5 30.5-13.8 0-25-9.3-28.8-21.8h-0.5c-12.8-32.8-44.7-53.8-83.8-53.8H363.5l-155.9-90.2v90.2h-47.8c-50.8 0-92.2 41.4-92.2 92.2V534c0 50.9 41.4 92.2 92.2 92.2H211v-252.4c0-84.8 69-153.7 153.7-153.7h278.6l206.8-119.7c12-6.9 27 1.7 27 15.6V220.79999999999995c78.4 6.9 140.1 73 140.1 153.1v328c0.1 84.7-68.8 153.7-153.6 153.7z m92.2-481.7c0-50.9-41.4-92.2-92.2-92.2h-47.8v-90.2l-155.9 90.2H364.8c-50.8 0-92.2 41.4-92.2 92.2v328c0 50.9 41.4 92.2 92.2 92.2h498.8c50.8 0 92.2-41.4 92.2-92.2v-328zM433.5 539.6m-37.9 0a37.9 37.9 0 1 1 75.8 0 37.9 37.9 0 1 1-75.8 0ZM797.8 539.6m-37.9 0a37.9 37.9 0 1 1 75.8 0 37.9 37.9 0 1 1-75.8 0ZM615.7 539.6m-37.9 0a37.9 37.9 0 1 1 75.8 0 37.9 37.9 0 1 1-75.8 0Z"  horiz-adv-x="1024" />

    
    <glyph glyph-name="fendianpaiming" unicode="&#58931;" d="M912.5 466.1h-6.8c-16.8 0-30.4-13.6-30.4-30.4v-372c0-54-43.8-97.9-97.9-97.9H255.6c-54 0-97.9 43.8-97.9 97.9v33.8l214.5 215.1L484.9 201c10.7-10.7 28-10.7 38.6 0l1.1 1.1c0.1 0.1 0.2 0.3 0.3 0.5 0 0 0.1 0 0.1 0.1l216.4 216.5 6.3-94.2c1-15.1 14-26.4 29.1-25.4l1.6 0.1c15.1 1 26.4 14 25.4 29.1L793 488.7c0 0.2 0.1 0.4 0.1 0.7l-0.1 1.6c-1 15.1-14 26.4-29.1 25.4L602 505.5c-15.1-1-26.4-14-25.4-29.1l0.1-1.6c1-15.1 14-26.4 29.1-25.4l92.3 6.2L504 261.20000000000005 391.3 372.79999999999995c-10.7 10.7-28 10.7-38.6 0l-1.2-1.2c-0.1-0.1-0.1-0.3-0.2-0.4L157.7 177.10000000000002V436.2c0 15.4-12.5 27.9-27.9 27.9h-5.6c-17.5 0-31.7-14.2-31.7-31.7v-368.8c0-90.1 73-163.1 163.1-163.1h521.9c90.1 0 163.1 73 163.1 163.1V438.1c-0.1 15.4-12.6 28-28.1 28zM1005.9 577L530.7 870.8c-0.6 0.4-1.3 0.5-1.9 0.8-2.6 1.7-5.4 2.7-8.3 3.6-0.5 0.1-0.9 0.4-1.4 0.5-8.6 2.2-18 1.2-25.9-4.3L18 577.7C3.7 567.7 0.3 548 10.3 533.8l1.1-1.5c10-14.3 29.7-17.7 43.9-7.7L511.4 806.5l457.2-282.7c14.3-10 33.9-6.5 43.9 7.7l1.1 1.5c10 14.3 6.6 34-7.7 44z"  horiz-adv-x="1024" />

    
    <glyph glyph-name="tonghangpaiming" unicode="&#58932;" d="M389-120.89999999999998H106.7c-53.1 0-96.2 43.2-96.2 96.2V519c0 53 43.2 96.2 96.2 96.2H389v-736.1zM106.7 548.2c-16.1 0-29.2-13.1-29.2-29.2v-543.7c0-16.1 13.1-29.2 29.2-29.2H322v602H106.7v0.1zM701.5-120.89999999999998H322.9V794.9c0 53 43.2 96.2 96.2 96.2h186.2c53.1 0 96.2-43.2 96.2-96.2v-915.8z m-311.5 67h244.5V794.9c0 16.1-13.1 29.2-29.2 29.2H419.1c-16.1 0-29.2-13.1-29.2-29.2v-848.8h0.1zM916.8-120.89999999999998H634.5V435.5H927c47.5 0 86.1-38.6 86.1-86.1v-374c0-53.1-43.2-96.3-96.3-96.3z m-215.3 67h215.3c16.1 0 29.2 13.1 29.2 29.2v374c0 10.5-8.6 19.1-19.1 19.1H701.5v-422.3z"  horiz-adv-x="1024" />

    
    <glyph glyph-name="jingduiguanzhu" unicode="&#58933;" d="M961.7 74h-72v71.8c0 15.9-12.9 28.8-28.8 28.8s-28.8-12.9-28.8-28.8V74h-71.6c-15.9 0-28.8-12.9-28.8-28.8s12.9-28.8 28.8-28.8h71.6v-71.8c0-15.9 12.9-28.8 28.8-28.8s28.8 12.9 28.8 28.8v71.8h72c15.9 0 28.8 12.9 28.8 28.8S977.6 74 961.7 74zM34.4-84.20000000000005c0-18.5 15-33.5 33.5-33.5h654.6c18.5 0 33.5 15 33.5 33.5s-15 35.1-33.5 35.1H140.1c-11.6 0-21.1 8.6-19.8 20.1 21.1 190.6 165.2 338.6 359.9 343.2h20c95.4-2.5 193.4-39.1 263.7-104.4 15.1-15.1 44.3-10.6 55.3 2.5 15.1 17.6 15.1 42.7-2.5 57.8-45.2 42.7-105.5 76.8-163.3 96.9C726.3 419.7 774 505.1 774 600.6c3 190-182.2 336.5-381.9 270-58.8-19.6-109.8-60-142.4-112.8-90.2-146.2-37.6-313.3 74.7-390.8-178.2-67.8-290-241.1-290-444.5v-6.7z m463.4 481.3h-22.5c-63.9 0-124.7 32.6-156.3 88.1C228.2 645.1 343.8 804 490.3 804c113 0 205.9-92.9 205.9-203.4-2.5-110.5-87.9-200.9-198.4-203.5z"  horiz-adv-x="1024" />

    
    <glyph glyph-name="kaidiancankao" unicode="&#58934;" d="M903.3-125.39999999999998H120.8c-54 0-97.8 43.8-97.8 97.8V792.6c0 54 43.8 97.8 97.8 97.8h635.7c54 0 97.8-43.8 97.8-97.8v-282.3h48.9c54 0 97.8-43.8 97.8-97.8v-440.1c0.1-54-43.7-97.8-97.7-97.8zM787.5-10.100000000000023V782.2c0 12.8-5 25-14 34s-21.1 14.1-33.8 14.1h-597c-12.7 0-24.8-5.1-33.8-14.1-9-9-14-21.3-14-34v-792.4c0-12.8 5-25 14-34s21.1-14.1 33.8-14.1H811s-2.9 1.1-12.8 14.1c-11.6 15.1-10.7 34.1-10.7 34.1z m158.3 411.7c0 13-5.1 25.4-14.3 34.6-9.2 9.2-21.6 14.3-34.6 14.3h-42.6v-459.9c0-13 5.1-25.4 14.3-34.6 9.2-9.2 15.3-14.3 28.2-14.3 13 0 25.4 5.1 34.6 14.3 9.2 9.2 14.3 21.6 14.3 34.6V412.5v-10.9h0.1zM645.6 569.4H193.9c-16.1 0-29.2 13.1-29.2 29.2v1.7c0 16.1 13.1 29.2 29.2 29.2h451.7c16.1 0 29.2-13.1 29.2-29.2v-1.7c0-16.2-13.1-29.2-29.2-29.2zM645.6 117.89999999999998H193.9c-16.1 0-29.2 13.1-29.2 29.2v1.7c0 16.1 13.1 29.2 29.2 29.2h451.7c16.1 0 29.2-13.1 29.2-29.2v-1.7c0-16.2-13.1-29.2-29.2-29.2zM645.6 343.6H193.9c-16.1 0-29.2 13.1-29.2 29.2v1.7c0 16.1 13.1 29.2 29.2 29.2h451.7c16.1 0 29.2-13.1 29.2-29.2v-1.7c0-16.1-13.1-29.2-29.2-29.2z"  horiz-adv-x="1024" />

    
    <glyph glyph-name="top" unicode="&#58935;" d="M965.3 265.6l-417 419.7c-9.2 9.3-21.8 14.7-33.8 14.6-1.6 0.1-2.5 0-4.2 0-6.8 0-13.1-1.6-18.9-4.2-5.9-2.2-11.4-5.6-16.2-10.4L99.1 309.70000000000005c-18.2-18.1-18.2-47.5 0-65.7 9.1-9.1 20.9-13.7 32.9-13.7 11.9 0 23.7 4.6 32.8 13.6L464 542.7v-615.2c0-25.7 20.8-46.4 46.4-46.4 25.6 0 46.4 20.8 46.4 46.4V545l342.7-344.9c9.1-9.1 21-13.7 32.9-13.7 11.9 0 23.7 4.5 32.7 13.5 18.3 18.1 18.3 47.5 0.2 65.7z m0.8 527.1H54.6C29 792.7 8.2 813.5 8.2 839.1c0 25.6 20.8 46.4 46.4 46.4h911.6c25.7 0 46.4-20.8 46.4-46.4 0-25.6-20.8-46.4-46.5-46.4z"  horiz-adv-x="1024" />

    
    <glyph glyph-name="wodepaiming" unicode="&#58936;" d="M965.8-93.39999999999998H59.5c-25.5 0-46.2 20.7-46.2 46.2 0 25.5 20.7 46.2 46.2 46.2h906.2c25.5 0 46.2-20.7 46.2-46.2 0-25.5-20.6-46.2-46.1-46.2zM941.2 830.1v-721.7c0-25.5-20.7-46.2-46.2-46.2-25.5 0-46.2 20.7-46.2 46.2V830.1c0 25.5 20.7 46.2 46.2 46.2 25.5 0 46.2-20.6 46.2-46.2zM558.8 557v-448.6c0-25.5-20.7-46.2-46.2-46.2-25.5 0-46.2 20.7-46.2 46.2V557c0 25.5 20.7 46.2 46.2 46.2 25.5 0 46.2-20.6 46.2-46.2zM193.5 393.2v-284.7c0-25.5-20.7-46.2-46.2-46.2-25.5 0-46.2 20.7-46.2 46.2V393.2c0 25.5 20.7 46.2 46.2 46.2 25.5-0.1 46.2-20.7 46.2-46.2z"  horiz-adv-x="1024" />

    
    <glyph glyph-name="release" unicode="&#58940;" d="M758.048846 290.14906699999995L418.13196 629.995443l195.668591 195.668591A238.574659 238.574659 0 0 0 783.662041 895.99896a238.733309 238.733309 0 0 0 169.932002-70.423065c93.70939-93.691762 93.744646-246.154613 0-339.828748zM517.270712 629.995443l240.778134-240.760506 146.099215 146.081587a170.284558 170.284558 0 0 1-120.468392 290.594299 169.032984 169.032984 0 0 1-120.309742-49.833793zM240.320331-127.98237200000005a239.579443 239.579443 0 0 0-169.949629 70.29967c-93.70939 93.70939-93.727018 246.154613 0 339.846376l195.668591 195.668591 339.793492-339.916887-195.668591-195.668591a239.544188 239.544188 0 0 0-169.843863-70.229159z m25.630823 506.658256l-146.081587-146.081587a170.249302 170.249302 0 0 1 240.760506-240.778134l146.099215 146.099215zM922.392835-29.689753999999994a34.991185 34.991185 0 0 1 0 49.498865L145.905829 796.401884a35.05112 35.05112 0 0 1-49.569377-49.569376l776.592773-776.575145a34.920674 34.920674 0 0 1 49.46361 0.052883z"  horiz-adv-x="1024" />

    
    <glyph glyph-name="upload" unicode="&#58941;" d="M1137.63586 421.628574a38.196246 38.196246 0 0 1-38.338165-38.21652v-230.211452s0-102.262137-51.131068-153.393205-127.726301-51.131068-127.726301-51.131068H255.655342s-76.696603 0-127.726301 51.131068-51.131068 153.393205-51.131068 153.393205V383.412054a38.348301 38.348301 0 0 1-76.696603 0v-255.776986s0-127.726301 63.903699-191.73137 191.731369-63.903698 191.731369-63.903698h664.582244s127.726301 0 191.731369 63.903698 63.923972 191.731369 63.923973 191.73137V383.412054a38.236794 38.236794 0 0 1-38.338164 38.21652zM932.949394 577.4952089999999L629.569019 880.875584a38.784193 38.784193 0 0 1-3.345213 3.872337 38.966659 38.966659 0 0 1-54.739843 0 38.804467 38.804467 0 0 1-3.345213-3.872337L264.738101 577.4952089999999a38.348301 38.348301 0 1 1 54.232993-54.232993L562.421478 766.7126000000001v-421.902273a38.348301 38.348301 0 0 1 76.696602 0V762.941633l239.598321-239.679417a38.348301 38.348301 0 1 1 54.232993 54.232993z"  horiz-adv-x="1175" />

    
    <glyph glyph-name="yanquan" unicode="&#58948;" d="M1023.569 405.079c-3.438 80.332-24.792 154.952-60.137 220.957 5.576-10.972 1.616-6.66-3.242-3.665l4.66-3.455c-5.637 5.853-13.541 9.489-22.295 9.489-8.333 0-15.896-3.295-21.459-8.652l-410.189-394.616-171.204 193.085c-5.694 6.401-13.953 10.414-23.149 10.414-7.89 0-15.091-2.954-20.555-7.816l-1.343-1.224c-6.401-5.694-10.414-13.953-10.414-23.149 0-7.89 2.954-15.091 7.816-20.555l186.169-209.983c2.376-5.515 6.13-10.054 10.836-13.315l-3.437 2.745c5.637-5.853 13.541-9.489 22.295-9.489 8.333 0 15.896 3.295 21.459 8.652l400.482 385.279c17.285-45.101 27.533-97.256 28.067-151.736 9.757-231.35-181.83-439.462-427.555-449.592-266.865-11.011-489.406 216.040-462.029 491.837 17.335 174.551 139.652 326.412 307.103 378.647 113.155 35.234 231.261 25.386 332.683-24.365 15.855-7.804 35.076-2.889 44.043 12.438 9.443 16.173 3.841 37.595-12.931 45.91-115.322 57.168-249.53 69.359-378.241 30.689-207.742-62.418-354.247-256.506-360.765-473.304-9.002-299.757 238.431-540.002 532.868-527.864 282.069 11.592 502.090 250.569 490.463 532.638z"  horiz-adv-x="1024" />

    
    <glyph glyph-name="add-circle" unicode="&#58950;" d="M209.6 389.1c0 17.7 14.4 32.1 32.1 32.1H798.5c17.7 0 32.1-14.4 32.1-32.1 0-17.7-14.4-32.1-32.1-32.1H241.7c-17.7 0-32.1 14.4-32.1 32.1zM520.1 699.6c17.7 0 32-14.4 32-32v-555.1c0-17.7-14.4-32-32-32s-32 14.4-32 32V667.6c-0.1 17.7 14.3 32 32 32zM512 896C229.2 896 0 666.8 0 384s229.2-512 512-512 512 229.2 512 512S794.8 896 512 896z m0-971.1C258.5-75.10000000000002 52.9 130.5 52.9 384S258.5 843.1 512 843.1 971.1 637.5 971.1 384 765.5-75.10000000000002 512-75.10000000000002z"  horiz-adv-x="1024" />

    
    <glyph glyph-name="close-circle" unicode="&#58951;" d="M294.56466478513664 173.77715395323946c-12.51579002700189 12.515790027001891-12.515790027001888 32.88046532517446 3.552713678800501e-15 45.396255352176354L688.2817205498063 612.8904650700854c12.515790027001891 12.51579002700189 32.88046532517446 12.515790027001888 45.396255352176354-3.552713678800501e-15 12.51579002700189-12.515790027001891 12.515790027001888-32.88046532517446-3.552713678800501e-15-45.396255352176354L339.96092013731294 173.77715395323946c-12.515790027001891-12.51579002700189-32.88046532517446-12.515790027001888-45.396255352176354 3.552713678800501e-15zM294.56466478513664 612.8904650700855c12.515790027001891 12.51579002700189 32.809754647055804 12.445079348883233 45.25483399593904-3.552713678800501e-15l392.5149742366525-392.51497423665256c12.51579002700189-12.515790027001891 12.445079348883233-32.809754647055804-3.552713678800501e-15-45.25483399593904s-32.809754647055804-12.445079348883233-45.25483399593904 3.552713678800501e-15L294.56466478513664 567.6356310741464c-12.586500705120544 12.445079348883237-12.515790027001888 32.73904396893715 3.552713678800501e-15 45.25483399593904zM149.9613280324877 746.0386719675123C-50.008469687067986 546.0688742479567-50.008469687067986 221.93112575204339 149.96132803248764 21.9613280324877s524.107546215469-199.9697977195557 724.0773439350246-5.684341886080802e-14 199.9697977195557 524.107546215469 5.684341886080802e-14 724.0773439350246S349.93112575204333 946.008469687068 149.9613280324877 746.0386719675123z m686.6713952102563-686.6713952102564C657.3811542119541-119.88429227353379 366.61884578804575-119.88429227353379 187.36727675725598 59.367276757256036S8.115707726466212 529.3811542119543 187.36727675725604 708.6327232427441 657.3811542119543 887.8842922735338 836.6327232427441 708.632723242744 1015.8842922735338 238.61884578804575 836.632723242744 59.36727675725592z"  horiz-adv-x="1024" />

    
    <glyph glyph-name="minus-circle" unicode="&#58952;" d="M209.6 389.1c0 17.7 14.4 32.1 32.1 32.1H798.5c17.7 0 32.1-14.4 32.1-32.1 0-17.7-14.4-32.1-32.1-32.1H241.7c-17.7 0-32.1 14.4-32.1 32.1zM512 896C229.2 896 0 666.8 0 384s229.2-512 512-512 512 229.2 512 512S794.8 896 512 896z m0-971.1C258.5-75.10000000000002 52.9 130.5 52.9 384S258.5 843.1 512 843.1 971.1 637.5 971.1 384 765.5-75.10000000000002 512-75.10000000000002z"  horiz-adv-x="1024" />

    
    <glyph glyph-name="dingdanzhongxin-fill" unicode="&#58953;" d="M665.7 755.8h-44.4c-28.8 0-51.3 23.7-53.3 52.5-0.1 2-0.4 4.3-0.7 6.3-4.9 32.4-30.4 58.4-62.9 62-44.4 5.1-80.9-29.5-80.9-73.1 0-26.3-21.4-47.8-47.6-47.8h-47.7c-33.1 0-60.1-27.2-60.1-60.4 0-7.2 5.9-13.1 13-13.1h430.6c7.4 0 13.5 6.1 13.5 13.6 0.1 33.1-26.7 60-59.5 60m-171 1.9c-20.2 0-36.6 16.4-36.6 36.7 0 20.3 16.4 36.7 36.6 36.7 20.2 0 36.6-16.4 36.6-36.7 0-20.2-16.4-36.7-36.6-36.7M858 716.6h-96.1v-52.5c0-10.1-8.2-18.4-18.3-18.4H249.9c-10.1 0-18.3 8.2-18.3 18.4v52.5h-96.1c-20.2 0-36.6-16.4-36.6-36.7v-752.4c0-20.3 16.4-36.7 36.6-36.7H858c20.2 0 36.6 16.4 36.6 36.7v752.4c0 20.2-16.4 36.7-36.6 36.7z m-94.9-589.8c0-5-4.1-9.2-9.1-9.2H237.8c-5 0-9.1 4.1-9.1 9.2v18.4c0 5 4.1 9.2 9.1 9.2H754c5 0 9.1-4.1 9.1-9.2v-18.4z m0 156.1c0-5-4.1-9.2-9.1-9.2H237.8c-5 0-9.1 4.1-9.1 9.2v18.4c0 5 4.1 9.2 9.1 9.2H754c5 0 9.1-4.1 9.1-9.2v-18.4z m0 156.1c0-5-4.1-9.2-9.1-9.2H237.8c-5 0-9.1 4.1-9.1 9.2V457.3c0 5 4.1 9.2 9.1 9.2H754c5 0 9.1-4.1 9.1-9.2V439z"  horiz-adv-x="1024" />

    
    <glyph glyph-name="koubeiguanli-fill" unicode="&#58954;" d="M210.2-11.100000000000023H42.8c-22.8 0-41.3 18.6-41.3 41.5V494.3c0 22.9 18.5 41.5 41.3 41.5h167.4c5.7 0 10.3-4.7 10.3-10.4v-526.2c0-5.7-4.6-10.3-10.3-10.3M863.9-77.5c-2-2.3-4.8-2.4-7.8-2.4h-413c-1.3 0-2.6 0.2-3.8 0.7l-171.5 67.6c-4 1.6-6.6 5.4-6.6 9.7V529.2c0 4.2 2.4 7.9 6.3 9.5C302.1 553.2 470 627.4 523 723.2c22.4 40.6 24.4 141.3 70.3 146 56.7 5.8 71-49.9 78.8-74.2 13.1-40.7 7.1-99.5-7-139.9-10.5-30-26.8-67.6-44.2-105.9-3.1-6.9 1.9-14.7 9.4-14.7l355.8-0.4c23 0.3 39.3-18.4 39.3-41.5V118c0-2.5-0.9-4.8-2.4-6.7l-159.1-188.8z"  horiz-adv-x="1025" />

    
    <glyph glyph-name="tuangoushanhui-fill" unicode="&#58955;" d="M990.6 895.8L570.4 854c-21.5-2.2-41.5-11.8-56.5-27.2l-28.4-29.1-472.7-484.4c-14.6-14.9-14.3-38.8 0.7-53.4l388.8-377.2c15-14.5 39-14.2 53.5 0.7l482.3 493.9 29.1 29.8c14.6 14.9 23.6 34.4 25.6 55.2l29 402.7c1.7 17.8-13.3 32.7-31.2 30.8M723.3 554.2L602.2 469.8c-4.8-3.4-5.4-10.3-1.1-14.4l107.6-103.7c5.3-5.1 2.9-14.1-4.3-15.8l-308-73.9c-10-2.4-16.1 10.7-7.7 16.7l128 91.6c4.8 3.4 5.3 10.3 1.1 14.3L403.7 495.3c-5.4 5.3-2.7 14.5 4.8 15.9l307.7 59.9c9.9 1.9 15.4-11.1 7.1-16.9"  horiz-adv-x="1024" />

    
    <glyph glyph-name="tupianguanli-fill" unicode="&#58956;" d="M974.2933333333333 745.7066666666667c0 19.946666666666665-16.21333333333333 36.05333333333333-36.266666666666666 36.05333333333333H85.97333333333336c-20.053333333333335 0-36.266666666666666-16.106666666666666-36.266666666666666-36.05333333333333v-718.08c0-19.946666666666665 16.21333333333333-36.05333333333333 36.266666666666666-36.05333333333333h852.16c20.053333333333335 0 36.266666666666666 16.106666666666666 36.266666666666666 36.05333333333333v718.08zM765.0133333333333 573.8666666666667c25.919999999999998 0 46.82666666666667-20.8 46.82666666666667-46.50666666666667S790.8266666666666 480.85333333333335 765.0133333333333 480.85333333333335c-25.919999999999998 0-46.82666666666667 20.8-46.82666666666667 46.50666666666667 0 25.6 20.906666666666666 46.50666666666667 46.82666666666667 46.50666666666667z m19.2-382.82666666666665H189.65333333333336c-6.719999999999999 0-10.346666666666666 8.32-5.866666666666666 13.333333333333334L388.37333333333333 471.68c3.0933333333333333 3.5199999999999996 8.639999999999999 3.6266666666666665 11.84 0.10666666666666667l167.46666666666667-196.16c2.9866666666666664-3.4133333333333336 8.32-3.5199999999999996 11.520000000000001-0.32l60.480000000000004 78.08c3.0933333333333333 3.0933333333333333 8.106666666666666 3.0933333333333333 11.2 0l138.88-148.8c4.906666666666666-4.8 1.3866666666666667-13.546666666666665-5.546666666666667-13.546666666666665z"  horiz-adv-x="1024" />

    
    <glyph glyph-name="huiyuanguanli-fill" unicode="&#58957;" d="M560.8 730c0-23.2-18.8-42.1-41.9-42.1-23.1 0-41.9 18.9-41.9 42.1 0 23.3 18.8 42.1 41.9 42.1 23.2 0 41.9-18.8 41.9-42.1M1024 543.8c0-23.3-18.8-42.1-41.9-42.1-23.2 0-41.9 18.8-41.9 42.1 0 23.2 18.8 42.1 41.9 42.1 23.1 0 41.9-18.8 41.9-42.1M91.3 543.8c0-23.2-18.8-42.1-41.9-42.1s-41.9 18.8-41.9 42.1c0 23.2 18.8 42.1 41.9 42.1s41.9-18.8 41.9-42.1M762.7-13H271.6c-13.8 0-26.2 8.8-30.7 22l-11.1 32.4c-1.8 5.3 2.1 10.8 7.7 10.8h559.2c5.6 0 9.5-5.5 7.7-10.8l-10.9-32.3c-4.5-13.2-16.9-22.1-30.8-22.1M215.9 93.5L92.6 460.2c-4.9 14.5 10.5 27.5 23.9 20.2l199.2-109.2 191.5 273.5c6.7 9.6 20.9 9.5 27.5-0.2L721.2 372 915.6 482.8c13.4 7.6 29.1-5.4 24.2-20l-124.4-370.3c-1.1-3.4-4.3-5.7-8-5.7l-583.5 1c-3.6 0-6.8 2.3-8 5.7"  horiz-adv-x="1024" />

    
    <glyph glyph-name="tuiguangtong-fill" unicode="&#58958;" d="M917.1 525.2V289c59.1 0 106.9 48.1 106.9 107.4V417.9c0 59.3-47.9 107.3-106.9 107.3M177.2 610.7l-54.9-13.1c-41.1-7.5-70.9-43.4-70.9-85.3V499c0-3.8-2.2-7.2-5.5-8.8L10.3 473.1c-3.4-1.6-5.5-5.1-5.5-8.8v-121.5c0-3.8 2.2-7.2 5.5-8.8l35.6-17.1c3.4-1.6 5.5-5.1 5.5-8.8V297c0-41.9 29.9-77.8 70.9-85.3l54.9-13.1v412.1zM784 57.39999999999998l-392.5 80.9v-148.2c0-5.4-4.4-9.8-9.7-9.8h-90.4c-5.4 0-9.7 4.4-9.7 9.8V161L212 175.39999999999998c-0.2 0.1-0.4 0.3-0.4 0.5v446.4c0 0.3 0.2 0.5 0.4 0.5L785 741c3.9 17.5 19.4 30.5 38 30.5h18.2c21.5 0 39-17.5 39-39.1v-676.3c0-21.6-17.4-39.1-39-39.1H823c-21.5 0-39 17.5-39 39.1v1.3z"  horiz-adv-x="1024" />

    
    <glyph glyph-name="huodongbaoming-fill" unicode="&#58959;" d="M874 803.4c-23.8 53.9-66.5 83.6-120.1 83.6-57.3 0-126.6-35.7-180.8-93.3-27.9-29.6-40.3-44.8-40.3-44.8-13.2-16.3-34.8-16.3-48 0 0 0-12.3 15.2-40.3 44.8-54.1 57.6-123.3 93.3-180.7 93.3-53.7 0-96.3-29.7-120.1-83.6-19.6-44.4-19.7-83.5-0.3-116.4 35.6-60.4 122.8-72.4 148.8-74.7 18.2-1.6 48.1-2.4 88.9-2.4 50.7 0 89.8 0.9 89.8 0.9 20.9 0.5 55.1 0.5 76 0 0 0 39.1-0.9 89.8-0.9 40.8 0 70.7 0.8 88.9 2.4 25.9 2.2 113.2 14.2 148.7 74.7 19.4 32.9 19.3 72-0.3 116.4m-445.4-92.2c12.8-16.5 6.2-30.4-14.6-30.7 0 0-13.3-0.2-41-0.2-33.3 0-57.3 0.6-71.4 1.8-25.5 2.2-72.7 13-88.2 39.3-8 13.6-7.1 31.1 2.9 53.7 12.4 28 31 41.6 57 41.6 35.1 0 81.3-25 117.8-63.8 29.1-30.8 37.5-41.7 37.5-41.7m380.5 9.1c-16.2-27.5-65.4-38.7-91.9-41-14.7-1.3-36.3-1.5-36.3-1.5-20.9-0.2-38-0.4-38-0.4-28.8 0-44.3 0.3-44.3 0.3-20.9 0.4-27.5 14.2-14.6 30.7 0 0 9.7 12.5 40 44.7 38 40.3 86.1 66.4 122.7 66.4 27.1 0 46.5-14.2 59.4-43.3 10.3-23.5 11.3-41.8 3-55.9M465.4 573.8V406.9c0-5.3 4.3-9.5 9.5-9.5h57c5.2 0 9.5 4.3 9.5 9.5V573.8h436.9c21 0 38-17.1 38-38.1v-105c0-21.1-17-38.1-38-38.1h-47.5v-467.3c0-21.1-17-38.1-38-38.1H114c-21 0-38 17.1-38 38.1V392.6h-38c-21 0-38 17.1-38 38.1V535.6c0 21.1 17 38.1 38 38.1h427.4z"  horiz-adv-x="1024" />

    
    <glyph glyph-name="jingyingcanmou-fill" unicode="&#58960;" d="M47.11137 164.927147c81.473787-171.214473 260.556755-292.927147 473.603736-292.927147 270.915281 0 499.201245 229.182375 499.201245 501.093668 0 293.723957-228.285964 522.906332-499.101644 522.906332C228.285964 896 0 666.718024 0 373.093668c0-46.314561 6.57368-91.334306 19.02383-134.162825L191.035113 409.049703c0.597607 0.79681 1.095613 1.693221 1.892423 2.390429 13.645365 14.641377 36.653244 15.537788 51.394223 2.091626l143.923742-130.577182L553.384301 446.499757C529.878416 469.706838 508.563758 490.722692 495.217197 503.969653c-5.378465 5.278864-1.792822 14.442175 5.876471 14.740978l175.596926 7.270888c5.079662 0.199202 9.362513-3.984048 9.163311-9.063709l-7.47009-173.306099c-0.298804-7.569692-9.561716-11.055734-14.940181-5.77687-13.346562 13.147359-34.860422 34.462017-58.465908 57.7687L416.532244 209.249684c-0.199202-0.199202-0.298804-0.398405-0.398405-0.597607-12.250948-13.147359-32.17119-15.139383-46.812567-5.478067-1.593619 0.996012-3.187239 2.091625-4.581655 3.386441L221.015076 336.93843000000004 47.11137 164.927147z"  horiz-adv-x="1024" />

    
    <glyph glyph-name="dingdanguanli-fill" unicode="&#58961;" d="M569.6 523v21.2c0 5.8-4.8 10.6-10.6 10.6H215.8c-5.8 0-10.6-4.8-10.6-10.6V523c0-5.8 4.8-10.6 10.6-10.6H559c5.8 0 10.6 4.8 10.6 10.6zM823 341.29999999999995v21.2c0 5.8-4.8 10.6-10.6 10.6H215.8c-5.8 0-10.6-4.8-10.6-10.6v-21.2c0-5.8 4.8-10.6 10.6-10.6h596.6c5.8 0 10.6 4.7 10.6 10.6z m0-199.9v21.2c0 5.8-4.8 10.6-10.6 10.6H215.8c-5.8 0-10.6-4.8-10.6-10.6v-21.2c0-5.8 4.8-10.6 10.6-10.6h596.6c5.8 0 10.6 4.7 10.6 10.6z m124.7 530.8c8 0 14.6-6.6 14.6-14.7v-737.6c0-21.6-17.3-39-38.7-39H137.7c-25.4 0-46.2 21-46.2 46.7v916.3c0 26.6 21.5 48.3 47.8 48.3h590.9c7.9 0 14.4-6.6 14.4-14.6v-161.3c0-24.2 19.6-44 43.5-44h159.6zM942.9 734.6l-136.5 137.7c-6.9 6.9-18.6 2-18.6-7.8v-104.6c0-24.3 19.5-44 43.5-44h103.8c9.8 0 14.7 11.8 7.8 18.7"  horiz-adv-x="1024" />

    
    <glyph glyph-name="tonghangpaiming-fill" unicode="&#58962;" d="M294.1-65.39999999999998H38.6c-21.3 0-38.6 17.5-38.6 39V562.8c0 21.5 17.3 39 38.6 39h255.6v-667.2zM982.3-63.299999999999955h-253.2V536.5h253.2c21.3 0 38.6-17.5 38.6-39v-521.7c0-21.6-17.3-39.1-38.6-39.1M660.7 849H365.8c-17.9 0-32.5-14.7-32.5-32.8v-879.6h357V819c0.1 16.6-13.2 30-29.6 30M549.4 544.9h-47c-5.2 0-9.4 4.3-9.4 9.5v91.8c0 7-5.7 12.7-12.6 12.7H457c-6.2 0-9.4 4.8-5 9.3l40 42c2.6 2.7 6.2 5.7 9.9 5.7h43.2c7.5 0 13.7-6.2 13.7-13.9v-147.7c0-5.2-4.2-9.4-9.4-9.4"  horiz-adv-x="1024" />

    
    <glyph glyph-name="renqibang-fill" unicode="&#58963;" d="M987.4 760.9h-132.2c-5.5 0-7.4 2.5-7.4 8v78.8c0 21.9-20.3 42.3-42.2 42.3H225.2c-21.9 0-31.6-20.4-31.6-42.3v-78.8c0-5.5-12.5-8-18-8H44.8c-21.9 0-44.8-19.7-44.8-41.7v-164.1c0-110.1 94.5-200.9 200.8-214.7 4-0.5 8.7-3.1 10.3-6.8 44-102.2 151.3-177.7 264.6-195.5 5.5-0.9 12.8-5.5 12.8-11.1v-116.6c0-18.7-20.2-24.2-38.9-24.2h-88.3c-24.9 0-45.1-21.2-45.1-46.1 0-24.9 20.2-46.1 45.1-46.1h313.3c24.9 0 45.1 21.2 45.1 46.1 0 24.9-20.2 46.1-45.1 46.1h-86.9c-18.7 0-25.4 5.5-25.4 24.2V128c0 5.5-0.2 10.1 5.2 11.1 110.5 19.5 209.9 94.1 253.1 194.5 1.6 3.7 1.9 6.2 5.9 6.7C933.4 353.4 1023 444.5 1023 555.1v164.1c-0.1 22-13.7 41.7-35.6 41.7zM193.5 448.6c0-2.6-3.3-4.7-5.9-4.7-62.3 0-113.9 50.5-113.9 112.9v118.9c0 5.5-0.4 2.2 5.1 2.2h97.6c5.5 0 17 3.3 17-2.2V448.6z m481.9 126.9l-74.8-64.6 23.3-95.8c2-8.2-6.9-14.7-14.1-10.4l-85.4 51.6-83.7-52c-7.2-4.5-16.2 2.1-14.2 10.3l23.3 96.3-75.5 64.6c-6.4 5.5-3 16 5.4 16.7l98.6 8 38.9 92.2c3.3 7.8 14.4 7.7 17.5-0.1l37.2-92.5 98.2-7.7c8.3-0.6 11.7-11.1 5.3-16.6z m283-18.7c0-62.3-47-112.9-109.3-112.9-2.6 0-1.2 2.1-1.2 4.7v227.5c0 5.5 2.4 11 7.9 11h97.6c5.5 0 5.1-5.5 5.1-11v-119.3z"  horiz-adv-x="1024" />

    
    <glyph glyph-name="mendianguanli-fill" unicode="&#58964;" d="M0.34069 507.8l97.2 285c4.3 15.5 18.2 26.1 34 26.1h761c15.8 0 29.7-10.7 34-26.1l97.2-285c0.9-3.2 0-6.8-2.4-9.1-55-51.9-141-50.7-194.5 3.8a54.213 54.213 0 0 1-77.6 0c-54.8-55.8-143.6-55.8-198.4 0a54.213 54.213 0 0 1-77.6 0c-54.8-55.8-143.6-55.8-198.3 0a54.213 54.213 0 0 1-77.6 0C143.84069 448 57.94069 446.7 2.84069 498.7c-2.5 2.3-3.4 5.9-2.5 9.1z m543.6-538.9l-6.3 130.5c52.4 11.9 93.2 56.7 93.2 113.6 0 49-30.1 91.1-67.5 109.4v-116.2H460.64069V322.5c-37.4-18.3-69.2-60.4-69.2-109.4 0-56.3 39.3-100.8 90.7-113.2l-6.4-131H140.94069c-19.5 0-35.3 16.1-35.3 36V424.4c35.9 0.1 62.9 14.1 90.2 42 21.5 21.9 56.4 21.9 78 0 55-56 144.2-56 199.2 0 21.5 21.9 56.4 21.9 78 0 55-56 144.2-56 199.2 0 21.5 21.9 56.4 21.9 78 0 27.4-27.9 54.4-41.9 90.2-42v-419.6c0-19.9-15.8-36-35.3-36H543.94069z"  horiz-adv-x="1024" />

    
    <glyph glyph-name="caiwuguanli-fill" unicode="&#58965;" d="M620.5 798.3L177.9 690.9c-10.7-2.6-8.9-19.6 2.2-19.6h496.3c6.1 0 10.5 7 9.1 12.8l-21.2 87.1c-4.7 19.2-24.3 31.7-43.8 27.1M626.8 313.29999999999995c0 56.1 46.1 101.7 103 101.7h226c4.9 0 9 4 9 8.8v178.9c0 19.4-16.1 35.4-35.8 35.4H99.8c-19.7 0-35.8-15.9-35.8-35.4v-582.6c0-19.4 16.1-35.4 35.8-35.4h829.1c19.7 0 35.8 15.9 35.8 35.4V202.79999999999995c0 4.9-4 8.8-9 8.8h-226c-56.8 0-102.9 45.6-102.9 101.7M811.7 315.79999999999995c0-39.1-32.1-70.7-71.6-70.7-39.6 0-71.6 31.7-71.6 70.7s32.1 70.7 71.6 70.7c39.5 0 71.6-31.7 71.6-70.7"  horiz-adv-x="1024" />

    
    <glyph glyph-name="yudingguanli-fill" unicode="&#58966;" d="M904.625 721.6875h-148.59375v90.84375c0 5.0625-4.125 9.09375-9.28125 9.09375h-55.59375c-5.15625 0-9.28125-4.03125-9.28125-9.09375v-90.84375H357.78125v90.84375c0 5.0625-4.125 9.09375-9.28125 9.09375h-55.59375c-5.15625 0-9.28125-4.03125-9.28125-9.09375v-90.84375H128.375c-21.5625 0-39.1875-17.25-39.1875-38.4375v-97.5c0-5.25 4.3125-9.46875 9.65625-9.46875h835.3125c3.9375 0 7.125 3.1875 7.125 7.03125v102.375c0 19.96875-16.40625 36-36.65625 36M934.15625 540H100.53125c-5.15625 0-11.34375-8.25-11.34375-13.3125v-536.15625c0-20.0625 18.65625-32.15625 39.1875-32.15625h778.03125c20.4375 0 34.96875 12.09375 34.96875 32.15625V526.6875c-0.09375 4.96875-2.15625 13.3125-7.21875 13.3125M721.0625 377.4375L507.125 133.78125c-4.125-4.21875-11.0625-4.40625-15.374999999999998-0.375L314 320.0625c-9.5625 8.8125 1.6875 23.625 13.03125 17.15625l161.625-106.78125c3.75-2.15625 8.4375-1.96875 11.90625 0.5625l206.15625 162.65625c10.875 7.687499999999999 23.53125-6.75 14.34375-16.21875"  horiz-adv-x="1024" />

    
    <glyph glyph-name="mashangfu-fill" unicode="&#58967;" d="M488.796875 796.294921875c0 20.830078125-16.69921875 37.705078125-37.265625 37.705078125H101.90234375c-20.56640625 0-37.265625-16.875-37.265625-37.705078125V442.623046875c0-20.830078125 16.69921875-37.705078125 37.265625-37.705078125h349.62890625c20.56640625 0 37.265625 16.875 37.265625 37.705078125v353.671875zM302.556640625 602.759765625c0-5.185546875-4.130859375-9.404296875-9.31640625-9.404296875h-53.7890625c-5.09765625 0-9.31640625 4.21875-9.31640625 9.404296875v54.404296875c0 5.185546875 4.130859375 9.404296875 9.31640625 9.404296875h53.7890625c5.09765625 0 9.31640625-4.21875 9.31640625-9.404296875v-54.404296875zM488.796875 325.376953125c0 20.830078125-16.69921875 37.705078125-37.265625 37.705078125H101.90234375c-20.56640625 0-37.265625-16.875-37.265625-37.705078125v-353.671875c0-20.830078125 16.69921875-37.705078125 37.265625-37.705078125h349.62890625c20.56640625 0 37.265625 16.875 37.265625 37.705078125V325.376953125zM302.556640625 121.294921875c0-5.185546875-4.130859375-9.404296875-9.31640625-9.404296875h-53.7890625c-5.09765625 0-9.31640625 4.21875-9.31640625 9.404296875V175.69921875c0 5.185546875 4.130859375 9.404296875 9.31640625 9.404296875h53.7890625c5.09765625 0 9.31640625-4.21875 9.31640625-9.404296875v-54.404296875zM954.265625 796.294921875c0 20.830078125-16.69921875 37.705078125-37.265625 37.705078125H567.458984375c-20.56640625 0-37.265625-16.875-37.265625-37.705078125V442.623046875c0-20.830078125 16.69921875-37.705078125 37.265625-37.705078125h349.62890625c20.56640625 0 37.265625 16.875 37.265625 37.705078125v353.671875z m-175.869140625-193.53515625c0-5.185546875-4.130859375-9.404296875-9.31640625-9.404296875h-53.7890625c-5.09765625 0-9.31640625 4.21875-9.31640625 9.404296875v54.404296875c0 5.185546875 4.130859375 9.404296875 9.31640625 9.404296875h53.7890625c5.09765625 0 9.31640625-4.21875 9.31640625-9.404296875v-54.404296875zM570.0078125 360.533203125c-21.005859375 0.087890625-38.232421875-17.2265625-38.3203125-38.49609375l-0.52734375-128.14453125-0.87890625-220.341796875c-0.087890625-20.390625 16.259765625-37.001953125 36.38671875-37.08984375h8.876953125c5.185546875 0 9.31640625 4.21875 9.31640625 9.404296875l0.791015625 176.923828125c0 5.185546875 4.21875 9.404296875 9.31640625 9.404296875l64.51171875-0.263671875c5.09765625 0 9.31640625-4.21875 9.31640625-9.4921875l1.0546875-59.67773437500001c0-5.185546875 4.130859375-9.404296875 9.31640625-9.4921875l77.255859375-0.615234375 37.529296875-0.17578125 133.154296875-0.17578125c14.94140625-0.087890625 27.0703125 12.12890625 27.158203125 27.24609375v-0.263671875l0.17578125 97.91015625 0.52734375 144.140625c0.087890625 20.830078125-16.5234375 37.79296875-37.08984375 37.880859375h-9.31640625c-5.185546875 0-9.31640625-4.21875-9.31640625-9.404296875l-0.615234375-160.224609375c0-5.185546875-4.21875-9.404296875-9.31640625-9.404296875l-63.6328125 0.263671875c-5.09765625 0-9.31640625 4.21875-9.31640625 9.4921875l0.615234375 160.224609375c0 5.185546875-4.130859375 9.404296875-9.31640625 9.4921875l-237.65624999999997 0.87890625zM944.685546875-63.978515625h-55.546875c-5.185546875 0-9.31640625 4.21875-9.31640625 9.404296875v56.25c0 5.185546875 4.130859375 9.404296875 9.31640625 9.404296875h55.546875c5.09765625 0 9.31640625-4.21875 9.31640625-9.404296875v-56.162109375c0-5.2734375-4.130859375-9.4921875-9.31640625-9.4921875M736.296875-64.76953125H680.75c-5.185546875 0-9.31640625 4.21875-9.31640625 9.404296875V0.796875c0 5.185546875 4.130859375 9.404296875 9.31640625 9.404296875h55.546875c5.09765625 0 9.31640625-4.21875 9.31640625-9.404296875v-56.162109375c0-5.185546875-4.130859375-9.404296875-9.31640625-9.404296875"  horiz-adv-x="1024" />

    
    <glyph glyph-name="tongchenghuodong-fill" unicode="&#58968;" d="M513.96875 297.84375c5.53125 0 10.03125 4.5 10.03125 9.9375v47.34375c0 5.53125-4.5 9.9375-10.03125 9.9375h-47.71875c-5.53125 0-10.03125-4.5-10.03125-9.9375v-47.34375c0-5.53125 4.5-9.9375 10.03125-9.9375h47.71875z m-135.75 0c5.53125 0 10.03125 4.5 10.03125 9.9375v47.34375c0 5.53125-4.5 9.9375-10.03125 9.9375h-47.71875c-5.53125 0-10.03125-4.5-10.03125-9.9375v-47.34375c0-5.53125 4.5-9.9375 10.03125-9.9375h47.71875zM514.25 467.34375c5.53125 0 10.03125 4.5 10.03125 9.9375V524.625c0 5.53125-4.5 9.9375-10.03125 9.9375h-47.71875c-5.53125 0-10.03125-4.5-10.03125-9.9375v-47.34375c0-5.53125 4.5-9.9375 10.03125-9.9375h47.71875z m-136.03125 0c5.53125 0 10.03125 4.5 10.03125 9.9375V524.625c0 5.53125-4.5 9.9375-10.03125 9.9375h-47.71875c-5.53125 0-10.03125-4.5-10.03125-9.9375v-47.34375c0-5.53125 4.5-9.9375 10.03125-9.9375h47.71875z m0 167.34375c5.53125 0 10.03125 4.5 10.03125 9.9375v47.34375c0 5.53125-4.5 9.9375-10.03125 9.9375h-47.71875c-5.53125 0-10.03125-4.5-10.03125-9.9375v-47.34375c0-5.53125 4.5-9.9375 10.03125-9.9375h47.71875zM242.09375 297.84375c5.53125 0 10.03125 4.5 10.03125 9.9375v47.34375c0 5.53125-4.5 9.9375-10.03125 9.9375h-47.71875c-5.53125 0-10.03125-4.5-10.03125-9.9375v-47.34375c0-5.53125 4.5-9.9375 10.03125-9.9375h47.71875z m0 169.5c5.53125 0 10.03125 4.5 10.03125 9.9375V524.625c0 5.53125-4.5 9.9375-10.03125 9.9375h-47.71875c-5.53125 0-10.03125-4.5-10.03125-9.9375v-47.34375c0-5.53125 4.5-9.9375 10.03125-9.9375h47.71875z m272.15625 167.34375c5.53125 0 10.03125 4.5 10.03125 9.9375v47.34375c0 5.53125-4.5 9.9375-10.03125 9.9375h-47.71875c-5.53125 0-10.03125-4.5-10.03125-9.9375v-47.34375c0-5.53125 4.5-9.9375 10.03125-9.9375h47.71875z m-272.15625 0c5.53125 0 10.03125 4.5 10.03125 9.9375v47.34375c0 5.53125-4.5 9.9375-10.03125 9.9375h-47.71875c-5.53125 0-10.03125-4.5-10.03125-9.9375v-47.34375c0-5.53125 4.5-9.9375 10.03125-9.9375h47.71875zM76.90625 854.8125h550.21875c23.15625 0 42.09375-18.75 42.09375-41.71875v-900.84375H458.09375c-5.53125 0-10.03125 4.5-10.03125 9.9375V56.8125c0 57-53.15625 102-112.125 91.875-46.3125-7.875-78.9375-49.6875-78.9375-96.28125v-130.21875c0-5.53125-4.5-9.9375-10.03125-9.9375H79.625c-24.09375 0-43.875 19.59375-43.875 43.5v858.375c0 22.3125 18.5625 40.6875 41.15625 40.6875zM708.875-87.75l0.75 666.375h231.09375c22.21875 0 40.21875-17.8125 40.21875-39.84375l-0.75-586.59375c0-22.03125-18-39.84375-40.21875-39.84375H708.875z"  horiz-adv-x="1024" />

    
    <glyph glyph-name="zhibo-fill" unicode="&#58969;" d="M695.1 763H49c-22 0-39.8-18.2-39.8-40.5v-656.9c0-22.4 17.8-40.5 39.8-40.5h646c22 0 39.8 18.2 39.8 40.5v656.9c0.1 22.3-17.7 40.5-39.7 40.5M445.3 218.10000000000002c-158.3-61-306 89.3-246.1 250.4 17.6 47.2 54.7 85 101.1 102.9 158.3 61 305.9-89.3 246-250.4-17.4-47.2-54.6-85-101-102.9M513.2 454.3c49-131.3-71.4-253.8-200.4-203.9-37.6 14.5-67.6 45.1-81.9 83.4C181.8 465 302.3 587.6 431.3 537.7c37.6-14.6 67.6-45.2 81.9-83.4M769.9 210.20000000000005v371.6l229.2 52.7c5.4 1.2 10.6-2.9 10.6-8.6V165c0-6.5-5.9-11.4-12.2-9.9-48.8 11.8-227.6 55.1-227.6 55.1"  horiz-adv-x="1024" />

    
    <glyph glyph-name="jieqian-fill" unicode="&#58970;" d="M720.9 432.4c5.3 0 9.5 4.3 9.5 9.5v57c0 5.3-4.3 9.5-9.5 9.5H441.6c-5.3 0-9.5 4.3-9.5 9.5v43.6c0 8.5-10.3 12.7-16.3 6.7L361.3 514c-0.1-0.1-0.1-0.2-0.2-0.2l-65.4-65.2c-6-6-1.8-16.2 6.8-16.2H365v0.1c0.1 0 0.2-0.1 0.3-0.1h355.6zM302.4 327c-5.3 0-9.5-4.3-9.5-9.5v-57c0-5.3 4.3-9.5 9.5-9.5h279.3c5.3 0 9.5-4.3 9.5-9.5v-43.6c0-8.5 10.3-12.7 16.3-6.7l54.5 54.3c0.1 0.1 0.1 0.2 0.2 0.2l65.4 65.2c6 6 1.8 16.2-6.8 16.2h-62.5v-0.1c-0.1 0-0.2 0.1-0.3 0.1H302.4z m218.4-455C228.3-128 0 101.20000000000005 0 373.1 0 666.8 228.3 896 520.8 896c270.8 0 499.1-229.2 499.1-522.9 0-271.9-228.3-501.1-499.1-501.1z"  horiz-adv-x="1024" />

    
    <glyph glyph-name="youhuicuxiao-fill" unicode="&#58971;" d="M118.25 397.03125l-76.125-76.875c-13.6875-13.875-13.40625-36 0.65625-49.40625l365.90625-349.59375c14.15625-13.5 36.65625-13.125 50.4375 0.65625l76.3125 76.875L118.25 397.03125zM962.5625 860.15625l-395.53125-38.71875c-20.15625-2.0625-39-10.96875-53.15625-25.21875L487.15625 769.3125 144.59375 423.65625l417.1875-398.25 351.375 354.1875 27.375 27.65625c13.6875 13.875 22.21875 31.875 24.09375 51.09375l27.28125 373.21875c1.59375 16.40625-12.5625 30.281249999999996-29.34375 28.59375M813.03125 555.9375c-33.1875-33.9375-88.03125-35.0625-122.71875-2.53125-34.59375 32.53125-35.8125 86.4375-2.625 120.375 33.1875 33.9375 88.03125 35.0625 122.62500000000001 2.53125 34.6875-32.53125 35.90625-86.4375 2.71875-120.375"  horiz-adv-x="1024" />

    
    <glyph glyph-name="meidianbao-fill" unicode="&#58972;" d="M2.3 483.7c-0.9-3.1 0-6.6 2.4-8.8 54.5-50.2 139.7-49 192.7 3.7 21.2 21.1 55.7 21.1 76.9 0 54.3-53.9 142.3-53.9 196.6 0 21.2 21.1 55.7 21.1 76.9 0 54.3-53.9 142.3-53.9 196.6 0 21.2 21.1 55.7 21.1 76.9 0 53-52.7 138.2-53.9 192.7-3.7 2.4 2.2 3.3 5.7 2.4 8.8l-96.3 275.5c-4.3 15-18 25.3-33.7 25.3H132.3c-15.6 0-29.4-10.3-33.7-25.3L2.3 483.7zM824.4 444.7c-21.3 21.2-55.9 21.2-77.3 0-54.5-54.2-142.9-54.2-197.4 0-21.3 21.2-55.9 21.2-77.2 0-54.5-54.2-142.9-54.2-197.4 0-21.3 21.2-55.9 21.2-77.3 0-27.1-26.9-53.9-40.5-89.4-40.6v-388.2c0-19.2 15.7-34.8 35-34.8h249c4.8 0 8.8 3.9 8.8 8.7V170.10000000000002c0 60.1 47.4 111.7 107.9 112.8 61.6 1.1 112-48.2 112-109.2v-183.9c0-4.8 3.9-8.7 8.8-8.7h249c19.3 0 35 15.6 35 34.8V404.1c-35.6 0.1-62.3 13.7-89.5 40.6"  horiz-adv-x="1024" />

    
    <glyph glyph-name="shangjiaqianbao-fill" unicode="&#58973;" d="M634.3 312c4.4 0 9.7 2.7 9.7 7v47c0 4.3-5.3 8.6-9.7 8.6h-18.5c-4.4 0-11.9 2.7-11.9 7V428.5c0 4.3 0.3 8.7-4.1 8.7h-32.2c-4.4 0-11.9-4.4-11.9-8.7v-46.8c0-4.3 0.3-7-4.1-7h-79.2c-4.4 0-5.1 2.7-5.1 7V428.5c0 4.3-6.6 8.7-11 8.7h-32.2c-4.4 0-5.1-4.4-5.1-8.7v-46.8c0-4.3-6.6-7-11-7h-18.5c-4.4 0-10.7-4.3-10.7-8.6v-46.9c0-4.3 6.3-7 10.7-7h82.2c4.4 0 11.6-4.3 11.6-8.6V273c0-4.3-7.2-7.7-11.6-7.7h-74.2c-4.4 0-10.7-3.7-10.7-8v-46.9c0-4.3 6.3-7.7 10.7-7.7h74.2c4.4 0 11.6-3.7 11.6-8v-66.9c0-4.3 0.1-11.2 4.5-11.2H536c4.4 0 11.6 6.9 11.6 11.2v66.9c0 4.3 0.1 8 4.5 8h74.2c4.4 0 9.7 3.4 9.7 7.7v46.9c0 4.3-5.3 8-9.7 8h-74.2c-4.4 0-4.5 3.4-4.5 7.7v30.6c0 4.3 0.1 8.6 4.5 8.6h82.2zM861.4 464.2c57.2-60.3 102.6-132.3 102.6-237.9s-34.6-200.8-150.3-268.1c-41.9-24.4-93-41.1-141.3-52.7h1.8s-65.5-20.2-166.2-20.2c-100.7 0-157.4 20.2-157.4 20.2h1.1c-48.3 11.6-99.4 28.3-141.3 52.7-115.7 67.3-150.3 162.5-150.3 268.1 0 105.6 45.3 177.6 102.5 237.9 57.2 60.4 157.8 113.7 157.8 170.2 0 56.5-86.3 83.4-120.8 125.1-34.6 41.8-15.5 73.1 45.3 68.5 60.8-4.6 127.1-27.6 127.1-27.6s29.5 25.9 63.3 54.1c33.4 27.9 75.7 28.2 76.6 28.2 0.9 0 43.2-0.3 76.6-28.2 33.8-28.3 63.3-54.1 63.3-54.1s66.3 23 127.1 27.6c60.8 4.6 79.9-26.7 45.3-68.5-34.6-41.8-120.8-68.6-120.8-125.1 0.2-56.5 100.7-109.9 158-170.2z"  horiz-adv-x="1024" />

    
    <glyph glyph-name="zhinengzhifu-fill" unicode="&#58974;" d="M621.7132827148438 411.29666513671873c4.12521943359375 0 9.04037431640625 2.54534853515625 9.04037431640625 6.5827968750000005V461.94031640625c0 4.03744921875-4.9151548828125 8.074897558593749-9.04037431640625 8.074897558593749h-17.203042968749997c-4.12521943359375 0-11.05909892578125 2.54534853515625-11.05909892578125 6.5827968750000005v43.8853130859375c0 4.03744921875 0.26331152343750003 8.162668652343749-3.86190703125 8.1626677734375h-29.84201279296875c-4.12521943359375 0-11.05909892578125-4.12521943359375-11.05909892578125-8.1626677734375v-43.8853130859375c0-4.03744921875 0.26331152343750003-6.5827968750000005-3.8619079101562503-6.5827968750000005h-73.6395556640625c-4.12521943359375 0-4.73961357421875 2.54534853515625-4.73961357421875 6.5827968750000005v43.8853130859375c0 4.03744921875-6.14394404296875 8.162668652343749-10.2691634765625 8.1626677734375h-29.84201279296875c-4.12521943359375 0-4.73961357421875-4.12521943359375-4.73961357421875-8.1626677734375v-43.8853130859375c0-4.03744921875-6.14394404296875-6.5827968750000005-10.2691634765625-6.5827968750000005h-17.203042089843752c-4.12521943359375 0-9.918080859375001-4.03744921875-9.918080859375001-8.074897558593749v-44.060854394531255c0-4.03744921875 5.79286142578125-6.5827968750000005 9.918080859375001-6.5827968750000005h76.44821484375001c4.12521943359375 0 10.79578740234375-4.03744921875 10.79578740234375-8.0748984375v-28.700994726562502c0-4.03744921875-6.6705679687499995-7.197191015624999-10.79578740234375-7.197191015624999h-68.9877123046875c-4.12521943359375 0-9.918080859375001-3.42305419921875-9.918080859375001-7.46050341796875V315.8022231445311c0-4.03744921875 5.79286142578125-7.197191015624999 9.918080859375001-7.197191015624999h68.9877123046875c4.12521943359375 0 10.79578740234375-3.42305419921875 10.79578740234375-7.46050341796875v-62.755997167968744c0-4.03744921875 0.08777021484374999-10.532474999999998 4.2129896484375005-10.532474999999998h44.85078984375c4.12521943359375 0 10.79578740234375 6.49502666015625 10.79578740234375 10.532474999999998v62.755997167968744c0 4.03744921875 0.08777021484374999 7.46050341796875 4.2129896484375005 7.46050341796875h68.9877123046875c4.12521943359375 0 9.04037431640625 3.15974267578125 9.04037431640625 7.197191015624999v44.060854394531255c0 4.03744921875-4.9151548828125 7.46050341796875-9.04037431640625 7.46050341796875h-68.9877123046875c-4.12521943359375 0-4.2129896484375005 3.15974267578125-4.2129896484375005 7.197191015624999V403.22176669921873c0 4.03744921875 0.08777021484374999 8.074897558593749 4.2129896484375005 8.0748984375h76.2726744140625z m120.94792294921875-371.4452903320313c0-9.654768457031249 7.81158603515625-17.4663544921875 17.4663544921875-17.4663544921875H856.1486251953125c9.654768457031249 0 17.4663544921875 7.81158603515625 17.4663544921875 17.4663544921875V135.87243984374993c0 9.654768457031249-7.81158603515625 17.4663544921875-17.4663544921875 17.4663544921875-9.654768457031249 0-17.4663544921875-7.81158603515625-17.4663544921875-17.4663544921875v-61.08835517578125c0-9.654768457031249-7.81158603515625-17.4663544921875-17.46635537109375-17.46635537109375h-61.08835517578125c-9.654768457031249 0-17.4663544921875-7.81158603515625-17.4663544921875-17.4663544921875z m0 689.3504973632813c0-9.654768457031249 7.81158603515625-17.4663544921875 17.4663544921875-17.4663544921875h61.08835517578125c9.654768457031249 0 17.4663544921875-7.81158603515625 17.46635537109375-17.4663544921875v-61.08835605468751c0-9.654768457031249 7.81158603515625-17.4663544921875 17.4663544921875-17.4663544921875 9.654768457031249 0 17.4663544921875 7.81158603515625 17.4663544921875 17.4663544921875V729.2018721679688c0 9.654768457031249-7.81158603515625 17.4663544921875-17.4663544921875 17.4663544921875H760.1275601562501c-9.654768457031249 0-17.4663544921875-7.81158603515625-17.4663544921875-17.4663544921875z m-462.55119960937503-689.3504973632813c0 9.654768457031249-7.81158603515625 17.4663544921875-17.4663544921875 17.4663544921875H201.5552955078125c-9.654768457031249 0-17.4663544921875 7.81158603515625-17.4663544921875 17.46635537109375V135.87243984374993c0 9.654768457031249-7.81158603515625 17.4663544921875-17.4663544921875 17.4663544921875s-17.4663544921875-7.81158603515625-17.4663544921875-17.4663544921875v-96.0210650390625c0-9.654768457031249 7.81158603515625-17.4663544921875 17.4663544921875-17.4663544921875H262.64365156250005c9.654768457031249 0.08777021484374999 17.4663544921875 7.899356250000001 17.4663544921875 17.4663544921875z m0 689.3504973632813c0 9.654768457031249-7.81158603515625 17.4663544921875-17.4663544921875 17.4663544921875H166.62258652343752c-9.654768457031249 0-17.4663544921875-7.81158603515625-17.4663544921875-17.4663544921875v-96.0210650390625c0-9.654768457031249 7.81158603515625-17.4663544921875 17.4663544921875-17.4663544921875s17.4663544921875 7.81158603515625 17.4663544921875 17.4663544921875v61.08835605468751c0 9.654768457031249 7.81158603515625 17.4663544921875 17.4663544921875 17.4663544921875h61.08835605468751c9.654768457031249 0.08777021484374999 17.4663544921875 7.899356250000001 17.4663544921875 17.4663544921875z m680.6612047851562 69.86541884765626v-828.9935639648437c0-19.30953779296875-15.623171191406252-34.932708984375-34.932708984375-34.932708984375H96.93270898437504c-19.30953779296875 0-34.932708984375 15.623171191406252-34.932708984375 34.932708984375v828.9935639648437c0 19.30953779296875 15.623171191406252 34.932708984375 34.932708984375 34.932708984375h828.9935639648437c19.22176669921875-0.08777021484374999 34.844938769531254-15.71094228515625 34.844937890625-34.932708984375z"  horiz-adv-x="1024" />

    
    <glyph glyph-name="saomafu-fill" unicode="&#58975;" d="M743.5252416992188 38.93115908203117c0-9.6670248046875 7.82150185546875-17.488526660156253 17.488526660156253-17.488526660156253H857.1567227539063c9.6670248046875 0 17.488526660156253 7.82150185546875 17.488526660156253 17.488526660156253V135.0741134765625c0 9.6670248046875-7.82150185546875 17.488526660156253-17.488526660156253 17.488526660156253-9.6670248046875 0-17.488526660156253-7.82150185546875-17.488526660156253-17.488526660156253v-61.16590107421876c0-9.6670248046875-7.82150185546875-17.488526660156253-17.48852578125-17.488526660156253h-61.165901953125c-9.6670248046875 0-17.488526660156253-7.82150185546875-17.488526660156253-17.488526660156253z m0 690.2255636718751c0-9.6670248046875 7.82150185546875-17.488526660156253 17.488526660156253-17.488526660156253h61.165901953125c9.6670248046875 0 17.488526660156253-7.82150185546875 17.48852578125-17.48852578125v-61.165901953125c0-9.6670248046875 7.82150185546875-17.488526660156253 17.488526660156253-17.488526660156253 9.6670248046875 0 17.488526660156253 7.82150185546875 17.488526660156253 17.488526660156253v96.14295439453124c0 9.6670248046875-7.82150185546875 17.488526660156253-17.488526660156253 17.488526660156253H761.013768359375c-9.6670248046875 0-17.488526660156253-7.82150185546875-17.488526660156253-17.488526660156253z m-463.138365234375-690.2255636718751c0 9.6670248046875-7.82150185546875 17.488526660156253-17.488526660156253 17.488526660156253H201.73244785156248c-9.6670248046875 0-17.488526660156253 7.82150185546875-17.488526660156253 17.488526660156253v61.16590107421876c0 9.6670248046875-7.82150185546875 17.488526660156253-17.48852578125 17.488526660156253-9.6670248046875 0-17.488526660156253-7.82150185546875-17.488526660156253-17.488526660156253v-96.14295439453124c0-9.6670248046875 7.82150185546875-17.488526660156253 17.488526660156253-17.488526660156253H262.89834980468754c9.6670248046875 0 17.488526660156253 7.82150185546875 17.488526660156253 17.488526660156253z m0 690.2255636718751c0 9.6670248046875-7.82150185546875 17.488526660156253-17.488526660156253 17.488526660156253H166.7553954101562c-9.6670248046875 0-17.488526660156253-7.82150185546875-17.488526660156253-17.488526660156253v-96.14295439453124c0-9.6670248046875 7.82150185546875-17.488526660156253 17.488526660156253-17.488526660156253 9.6670248046875 0 17.488526660156253 7.82150185546875 17.48852578125 17.488526660156253v61.165901953125c0 9.6670248046875 7.82150185546875 17.488526660156253 17.488526660156253 17.48852578125h61.165901953125c9.6670248046875 0 17.488526660156253 7.82150185546875 17.488526660156253 17.488526660156253z m526.6770820312499-346.69465839843747V402.2355240234375c0 5.44868701171875-4.39410234375 9.93067119140625-9.8427884765625 9.930670312499998H240.5763107421875C235.127624609375 412.1661943359375 230.73352226562508 407.68421015625 230.73352226562508 402.2355240234375v-19.77345966796875c0-5.44868701171875 4.39410234375-9.93067119140625 9.8427884765625-9.93067119140625h556.6448592773438c5.44868701171875 0 9.8427884765625 4.4819841796875 9.8427884765625 9.93067119140625z m154.84815966796873 416.56088232421877v-830.045893359375c0-19.334049609375-15.6430037109375-34.97705332031251-34.97705332031251-34.97705332031251H96.9770533203125c-19.334049609375 0-34.97705332031251 15.6430037109375-34.97705332031251 34.97705332031251v830.045893359375c0 19.334049609375 15.6430037109375 34.97705332031251 34.97705332031251 34.97705332031251h830.045893359375c19.246167773437502 0 34.889170605468756-15.6430037109375 34.889171484375-34.97705332031251z"  horiz-adv-x="1024" />

    
    <glyph glyph-name="meiyedaxue-fill" unicode="&#58976;" d="M587.7-121h376.8c25.6 0 46.4 20.8 46.4 46.4V353.79999999999995c0 24.4-19.8 44.2-44.2 44.2h-84v213.1H137.3V398h-84c-24.4 0-44.3-19.8-44.3-44.2v-428.4c0-25.6 20.8-46.4 46.4-46.4h376.8V45.700000000000045c0 42.9 34.8 77.7 77.7 77.7s77.7-34.8 77.7-77.7V-121zM438.4 404.9c0 39.5 32 71.5 71.5 71.5s71.5-32 71.5-71.5-32-71.5-71.5-71.5-71.5 32-71.5 71.5zM491.8 879.5L104.5 674.4c-10.7-5.7-6.7-21.9 5.4-21.9h797.2c12 0 16.1 16 5.5 21.8l-377 204.9c-13.6 7.5-30.1 7.6-43.8 0.3"  horiz-adv-x="1024" />

    
    <glyph glyph-name="shangdanguanli-fill" unicode="&#58977;" d="M712.3 300.4l-35.4 28.1c2.5 11.2 3.9 22.8 3.9 34.7 0 13.5-1.7 26.6-4.9 39.1l36.4 28.9c6 4.4 7.8 12.7 4 19.2l-23.1 40.3c-3.7 6.5-11.7 9.1-18.5 6.1L630 478.9c-17.2 15.8-37.9 27.7-60.8 34.5l-7.1 48.7c-0.8 7.5-7 13-14.5 13h-46.3c-7.4 0-13.7-5.5-14.5-13l-7.1-49.2C457.2 506 436.9 494.1 420 478.5l-45.7 18.3c-6.8 3-14.8 0.4-18.5-6l-23.1-40.3c-3.7-6.5-2-14.8 4-19.2l37.7-29.9c-3-12.2-4.7-25-4.7-38.1 0-11.6 1.3-22.8 3.6-33.7l-36.6-29.1c-6-4.4-7.8-12.7-4-19.2l23.1-40.3c3.7-6.5 11.7-9.1 18.5-6.1l41.8 16.8c17.8-17.6 39.8-31 64.4-38.4l6.3-43.1c0.8-7.5 7-12.4 14.5-12.4h46.3c7.4 0 13.7 4.9 14.5 12.4l6.3 43c25 7.2 47.4 20.4 65.5 38.2l40.8-16.4c6.8-3 14.8-0.5 18.5 6l23.1 40.3c3.8 6.5 2 14.7-4 19.1z m228.2 369.2c7.9 0 14.4-6.6 14.4-14.6v-729.4c0-21.3-17.1-38.6-38.2-38.6H139.5c-25.1 0-45.7 20.8-45.7 46.2v906.1c0 26.3 21.3 47.7 47.3 47.7h584.3c7.8 0 14.3-6.5 14.3-14.4v-159.5c0-23.9 19.4-43.5 43.1-43.5h157.7zM538.4 269.70000000000005C471.7 261.29999999999995 417 326.4 444.6 395c8.3 20.6 24.9 37.2 45.6 45.5 68.6 27.4 133.6-27.1 125.2-93.7-5-39.9-37.2-72-77-77.1zM935.7 731.4l-135 136.1c-6.8 6.8-18.4 2-18.4-7.7v-103.5c0-24 19.3-43.5 43-43.5H928c9.7 0 14.5 11.7 7.7 18.6"  horiz-adv-x="1024" />

    
    <glyph glyph-name="neirongguanli-fill" unicode="&#58978;" d="M495.4765625 785.044921875c0 20.56640625-16.69921875 37.177734375-37.177734375 37.177734375H109.197265625c-20.56640625 0-37.177734375-16.69921875-37.177734375-37.177734375V436.03125c0-20.56640625 16.69921875-37.177734375 37.177734375-37.177734375h386.279296875v386.19140625zM495.4765625 357.45703125H109.197265625c-20.56640625 0-37.177734375-16.69921875-37.177734375-37.177734375v-349.1015625c0-20.56640625 16.69921875-37.177734375 37.177734375-37.177734375h349.1015625c20.56640625 0 37.177734375 16.69921875 37.177734375 37.177734375V357.45703125zM960.2421875 320.279296875c0 20.56640625-16.69921875 37.177734375-37.177734375 37.177734375H536.78515625v-386.279296875c0-20.56640625 16.69921875-37.177734375 37.177734375-37.177734375h349.1015625c20.56640625 0 37.177734375 16.611328125 37.177734375 37.177734375V320.279296875zM748.513671875 610.58203125m-211.728515625 0a211.728515625 211.728515625 0 1 1 423.45703125 0 211.728515625 211.728515625 0 1 1-423.45703125 0Z"  horiz-adv-x="1024" />

    
    <glyph glyph-name="jiaoyu-fill" unicode="&#58979;" d="M922.3 532.7v20c0 5.5-4.5 10-10 10H634c-5.5 0-10-4.5-10-10v-20c0-5.5 4.5-10 10-10h278.3c5.5 0 10 4.5 10 10z m0-170.5v20c0 5.5-4.5 10-10 10H634c-5.5 0-10-4.5-10-10v-20c0-5.5 4.5-10 10-10h278.3c5.5 0 10 4.5 10 10zM404.4 526.6v20c0 5.5-4.5 10-10 10H116.2c-5.5 0-10-4.5-10-10v-20c0-5.5 4.5-10 10-10h278.3c5.4 0 9.9 4.5 9.9 10z m0-160.1v20c0 5.5-4.5 10-10 10H116.2c-5.5 0-10-4.5-10-10v-20c0-5.5 4.5-10 10-10h278.3c5.4 0 9.9 4.5 9.9 10z m609.7 313.1l-1.2-649.2c0.3-26.7-27.5-44.2-50.9-31.9-49.2 25.7-118.2 58.3-196.4 58.3-71.5 0-133.7 2.1-179.4-18.9-3.7-1.7 4-15 4-15 1.1-5.5-3.1-10.6-8.6-10.6H429.9c-5.5 0-9.6 5.1-8.6 10.6 0 0 7.8 14.6 4.1 16.2-46.8 20.5-106.6 17.6-166.5 17.6-88.2 0-161.4-30.4-207.6-55.6-23.2-12.7-51.3 4.6-51.3 31.4l0.4 647.5c0 10.4 4.5 20.2 12.3 27 27.8 24.1 104.2 54.7 241 54.7 145.2 0 226-41.2 247.5-60.8 3.4-3 8.3-3 11.6 0.2 20.6 19.8 97.9 60.7 247.6 60.7 132.7 0 211.6-30.8 240.7-54.9 8.1-6.9 12.8-16.8 13-27.3z"  horiz-adv-x="1024" />

    
    <glyph glyph-name="shanghuguanli-fill" unicode="&#58980;" d="M64.2-19c-26.8 0-48.8 20.8-48.8 46.5 0 0-0.1 3.7-0.2 5.9-0.4 11.1-0.3 22.4 0.3 33.6 2.4 44.4 13.5 82 43 127.8 36.3 56.3 108.7 92.7 183.8 102.6 39.6 5.2 46.8 10.3 60.3 34.5 4.8 8.5 4.9 15.7-3.1 20.6-52.1 31.7-109.7 99.8-120 162.6-1.7 7.3-3.4 17.2-4.8 29.3-2.1 18.1-2.8 37-1.7 56.4 3.1 53.8 19.5 101.7 53.5 138.8 47 51.3 102.9 70.8 154.5 70.8h9.5c6.5 0 10.3 0 11-0.1 50-1 104.6-20.8 150.4-70.8 34-37.1 50.4-85 53.5-138.8 1.1-19.3 0.4-38.3-1.7-56.4-1.4-12-3.1-22-4.6-28.6-10.5-63.2-68.1-131.4-120.2-163-8.1-4.9-7.9-12.1-3.1-20.7 13.5-24.3 20.8-29.3 60.4-34.5 75.1-9.9 147.5-46.3 183.8-102.6 29.5-45.8 40.6-83.4 43-127.8 0.6-11.2 0.6-22.5 0.3-33.8-0.1-2.1-0.2-6.1-0.2-5.9 0-25.6-22.1-46.3-48.8-46.3H64.2zM998.4 141l-42.6 33.9c3 13.5 4.7 27.5 4.7 41.9 0 16.3-2 32.1-5.9 47.3l43.8 34.9c7.2 5.3 9.3 15.3 4.9 23.1l-27.8 48.7c-4.5 7.8-14.1 11-22.3 7.3l-53.7-21.6c-20.7 19.1-45.6 33.4-73.2 41.6l-8.5 58.8c-0.9 9-8.4 15.7-17.4 15.7h-55.7c-9 0-16.5-6.6-17.4-15.7l-8.6-59.4c-27.1-8.4-51.5-22.7-71.8-41.6l-55 22.2c-8.2 3.7-17.8 0.5-22.3-7.3l-27.8-48.7c-4.5-7.8-2.4-17.8 4.9-23.1l45.3-36.1c-3.7-14.7-5.6-30.2-5.6-46 0-14 1.5-27.6 4.4-40.7L546.7 141c-7.2-5.3-9.3-15.3-4.9-23.1l27.8-48.7c4.5-7.8 14.1-11 22.3-7.3l50.3 20.3c21.4-21.3 47.9-37.4 77.4-46.4l7.6-52c0.9-9 8.4-15 17.4-15h55.7c9 0 16.5 6 17.4 15l7.5 51.9c30.1 8.8 57 24.7 78.8 46.2l49.1-19.9c8.2-3.7 17.8-0.6 22.3 7.3l27.8 48.7c4.6 7.7 2.5 17.7-4.8 23M800.4-49.60000000000002h-55.7c-18.8 0-33.8 13.2-35.7 31.4l-5.9 40.1c-23.7 8.7-45.8 21.9-64.9 38.8l-39.5-15.9c-16.2-7.3-35.9-0.9-45.1 15.2l-27.8 48.7c-9.1 16-4.8 36.2 9.9 47l34.9 27.8c-1.8 11-2.7 22.1-2.7 33.2 0 13 1.2 26 3.6 38.8l-36.4 29c-14.2 10.4-18.5 30.6-9.4 46.6l28 48.9c9.2 16.1 28.8 22.6 45.7 14.9l43.9-17.7c17.6 14.5 37.6 26.1 58.9 34l7 48.3c1.8 17.6 17.1 31.4 35.6 31.4h55.7c18.4 0 33.8-13.8 35.7-32.1L843 412c21.8-7.9 42.2-19.6 60.2-34.3l43.3 17.4c16.2 7.3 35.9 0.9 45.1-15.2l27.8-48.7c9.1-16 4.8-36.2-9.9-47l-34.3-27.3c2.6-13.2 3.8-26.6 3.8-40.1 0-11.5-1-23-2.9-34.5l33.6-26.8c14.5-10.9 18.6-30.9 9.6-46.8l-27.8-48.7c-9.2-16.1-28.9-22.5-45.7-14.9l-37.6 15.2c-19.3-16.9-41.9-30.1-66.2-38.7l-5.9-40.6c-2-17.4-16.9-30.6-35.7-30.6z m-153.8 153.3l8.6-8.5c19.5-19.4 43.7-33.9 69.8-41.8l11.2-3.4 9.3-63.6 54.9 0.7 8.5 62.9 11.3 3.3c26.8 7.8 51.3 22.2 71 41.6l8.6 8.5 60.3-24.4 27.3 48-0.3 0.2-0.1-0.6-51.6 41.1 2.5 11.2c2.8 12.5 4.2 25.2 4.2 37.8 0 14.4-1.8 28.8-5.3 42.7l-2.9 11.5 53.1 42.3-27.5 48.4-64-26.6-8.5 7.9c-18.8 17.3-41.6 30.3-66 37.5l-11.3 3.3-10.2 70.4-54.9-0.1-9.5-70.9-11.1-3.4c-23.9-7.4-46.3-20.3-64.7-37.5l-8.6-7.9-65.8 26.5-27.2-47.8 54.9-43.1-2.8-11.4c-3.4-13.6-5.1-27.6-5.1-41.6 0-12.3 1.3-24.7 4-36.8l2.4-11.1-53-42.3 27.5-48.4 61 25.4zM841.1 211.70000000000005c-3.9-31.1-28.8-56.3-59.6-60.2-51.6-6.6-93.9 44.3-72.5 98 6.4 16.1 19.3 29.1 35.3 35.6 53 21.3 103.3-21.4 96.8-73.4"  horiz-adv-x="1024" />

    
    <glyph glyph-name="mianfeishiyong-fill" unicode="&#58981;" d="M328.4 477.1c0-7.1 6.5-12.5 13.4-11.1 42.6 8.5 73.8 22.2 93.5 40.9h109.5c3.9 0 6.2-4.6 3.7-7.6-12-14.3-25.4-26.7-40.4-37.3H371.9c-5.2 0-9.4-4.2-9.4-9.4v-106.7c0-5.2 4.2-9.4 9.4-9.4h96c-15.1-41.2-59.1-76.6-131.9-106.1-3.5-1.4-5.9-4.8-5.9-8.6v-5.5c0-6.4 6.3-10.9 12.3-8.9 83.7 28.3 136.4 63.6 158 105.9v-55.8c-1-29.9 15-44.4 48-43.4h85.2c31-1 45.9 12.4 44.9 40.3v10.8c0 5.2-4.2 9.4-9.4 9.4h-12.3c-5.2 0-9.4-4.2-9.4-9.4v-6.1c1-13.4-6.2-19.6-21.7-18.6h-65c-15.5-1-22.7 6.7-21.7 23.2v44.9c0 5.2-4.2 9.4-9.4 9.4h-26.3c1 2 2.6 5.2 4.6 9.3 1 4.1 2.1 7.2 3.1 9.3h85.2c33-1 49 15 48 48v68c0 5.2-4.2 9.4-9.4 9.4h-77.4c14 10.3 28.5 23.5 43.3 39.7 3 3.3 4.7 7.7 4.7 12.1v8.5c0 5.2-4.2 9.4-9.4 9.4H458.5c3.3 4 7 9.6 11.1 16.9 3.5 6.3-0.9 14.1-8.1 14.1h-22.4c-3.3 0-6.3-1.8-8-4.7-18.2-31-49.8-54.4-95-70.1-4.5-1.8-7.7-6-7.7-10.8z m208.5 390.2l98.7-75.9c7.9-6.1 17.8-9.1 27.9-8.7l126.5 6c19.4 0.9 36.8-11.2 41.9-29.1l33.1-116.8c2.6-9.3 8.8-17.4 17.3-22.7L988.4 554c16.2-10.1 22.9-29.7 16-47l-45.2-113c-3.6-9-3.6-19 0-28l45.1-113c6.9-17.3 0.2-36.9-16-47l-106.1-66.1c-8.5-5.3-14.6-13.4-17.3-22.7l-33.1-116.8c-5.1-17.9-22.5-30-41.9-29.1l-126.5 6c-10.1 0.5-20.1-2.6-27.9-8.7l-98.7-75.9c-15.1-11.6-36.7-11.6-51.8 0l-98.7 75.9c-7.9 6.1-17.8 9.1-27.9 8.7l-126.5-6c-19.4-0.9-36.8 11.2-41.9 29.1l-33 116.7c-2.6 9.3-8.8 17.4-17.3 22.7l-106.1 66.1c-16.2 10.1-22.9 29.7-16 47l45.1 113c3.6 9 3.6 19 0 28l-45 113.2c-6.9 17.3-0.2 36.9 16 47l106.1 66.1c8.5 5.3 14.6 13.4 17.3 22.7l33.1 116.8c5.1 17.9 22.5 30 41.9 29.1l126.5-6c10.1-0.5 20 2.6 27.9 8.7l98.7 75.9c15 11.5 36.6 11.5 51.7-0.1zM607.2 424.7c0 5.2-4.2 9.4-9.4 9.4h-74.3v-12.4c0-20.7-1.6-39.7-4.6-58.3h63.5c17.5-1 25.8 7.2 24.8 24.8V424.7zM477.1 364.6c4.1 16.5 6.2 33.8 6.2 55.5V434h-72.7c-5.2 0-9.4-4.2-9.4-9.4V374c0-5.2 4.2-9.4 9.4-9.4h66.5z"  horiz-adv-x="1024" />

    
    <glyph glyph-name="xiaofeitongji" unicode="&#58982;" d="M931.71914 896H148.547865C67.237902 896 1.051422 829.8029 1.051422 748.4716960000001v-232.289904a36.757286 36.757286 0 0 1 73.514572 0V748.4716960000001a74.109316 74.109316 0 0 0 73.992491 74.013732h783.160655a74.109316 74.109316 0 0 0 73.992491-74.013732v-489.049265a74.088075 74.088075 0 0 0-73.992491-73.992491H147.549545a74.088075 74.088075 0 0 0-73.992491 73.992491v19.010559l171.349914 173.718268 140.465722-152.45618c0.053102-0.053102 0.074343-0.138066 0.127445-0.201788l1.412516-1.401896c1.550582-1.529341 3.494119-2.272771 5.235869-3.441018a33.762327 33.762327 0 0 1 5.097803-3.356053 32.58346 32.58346 0 0 1 8.177726-1.901056 33.751706 33.751706 0 0 1 4.110104-0.785912 33.156962 33.156962 0 0 1 9.558382 1.49748c0.977079 0.265511 1.986019 0.223029 2.941857 0.584123a33.199444 33.199444 0 0 1 9.176046 5.628825c0.584123 0.477919 1.306312 0.626605 1.858574 1.136385l0.414197 0.382336c0.201788 0.201788 0.488539 0.25489 0.679707 0.456678l216.720363 220.267585 64.18984-63.382688c12.489618-12.330312 33.634881-3.186127 33.220685 14.348192l-3.812732 161.71719a28.526458 28.526458 0 0 1-28.207845 27.857371l-161.759671 1.773611c-17.54494 0.191168-26.412993-21.07092-13.923376-33.401233l61.332946-60.536414L411.265282 373.124686 271.638574 524.66751c-0.339854 0.371715-0.456678 0.860254-0.817773 1.210729l-1.412516 1.401895a32.551598 32.551598 0 0 1-8.634405 5.681927c-0.520401 0.265511-0.934597 0.722189-1.454998 0.955838a32.84897 32.84897 0 0 1-10.822211 2.517041c-0.562882 0-1.062042 0.297372-1.646166 0.318612a33.082619 33.082619 0 0 1-10.174366-1.603684c-0.839013-0.24427-1.709888-0.201788-2.527661-0.50978a33.231305 33.231305 0 0 1-7.848493-4.811052 31.34087 31.34087 0 0 1-3.186127-1.975399l-0.711568-0.658466c-0.053102-0.053102-0.127445-0.074343-0.180547-0.127445L12.5321 314.478707c-0.456678-0.456678-0.594744-1.062042-1.062043-1.550582a36.459914 36.459914 0 0 1-11.470057-26.455475v-27.050219c0-81.341824 66.18648-147.507063 147.507063-147.507063h378.416312l0.180548-168.864734-189.404634-0.106205a34.431413 34.431413 0 0 1-34.229626-34.62258v-2.049742a34.431413 34.431413 0 0 1 34.622581-34.229625l223.64488 0.127445h0.477919l225.004294 0.127445a34.420793 34.420793 0 0 1 34.250866 34.526997v2.124085a34.420793 34.420793 0 0 1-34.611961 34.229625l-188.831131-0.106204-0.180547 168.864734h334.872576c81.309963 0 147.507063 66.165239 147.507063 147.507063V748.4716960000001C1079.226203 829.8029 1013.039723 896 931.71914 896z"  horiz-adv-x="1079" />

    
    <glyph glyph-name="zhangdan" unicode="&#58983;" d="M1062.66996 896H320.710146a141.631547 141.631547 0 0 1-141.500945-141.477199 37.993206 37.993206 0 1 1 75.915174 0 65.633263 65.633263 0 0 0 65.585771 65.562025h741.959814a76.508818 76.508818 0 0 0 76.413834-76.413835v-451.513629a76.508818 76.508818 0 0 0-76.413834-76.413835h-26.927685V475.866384c0 84.000603-68.352151 152.329009-152.329008 152.329008H152.329009C68.352151 628.1953920000001 0 559.866987 0 475.866384v-451.51363c0-84.000603 68.352151-152.352754 152.329009-152.352754h731.084258c83.976857 0 152.329009 68.352151 152.329008 152.352754v115.475599h26.927685c83.976857 0 152.329009 68.328406 152.329008 152.329009V743.670991c0 84.000603-68.352151 152.329009-152.329008 152.329009z m-102.842859-871.647246a76.532563 76.532563 0 0 0-76.413834-76.43758H152.329009a76.532563 76.532563 0 0 0-76.413835 76.43758V475.866384a76.508818 76.508818 0 0 0 76.413835 76.413834h731.084258a76.508818 76.508818 0 0 0 76.413834-76.413834v-451.51363zM676.029729 286.375271a37.993206 37.993206 0 0 1 0 75.915174h-25.847253v88.57166a37.993206 37.993206 0 1 1-75.915174 0v-88.57166h-99.649054v88.57166a37.993206 37.993206 0 0 1-75.915174 0v-88.57166h-30.537039a37.993206 37.993206 0 0 1 0-75.915174h115.950514v-73.789929h-115.950514a37.993206 37.993206 0 0 1 0-75.915174h115.950514v-81.198604a37.993206 37.993206 0 0 1 75.915174 0v81.198604h115.998006a37.993206 37.993206 0 0 1 0 75.915174h-115.998006v73.789929h115.998006z"  horiz-adv-x="1214" />

    
    <glyph glyph-name="tuandanguanli" unicode="&#58984;" d="M1063.669625-128H162.246977A158.810454 158.810454 0 0 0 3.604158 30.64281900000003V388.160917c0 55.080154 44.84243 100.42549 99.946532 100.952343l1032.226042 9.854558v72.526195a72.17895 72.17895 0 0 1-72.107107 72.107107H659.213657a158.331496 158.331496 0 0 0-121.008705 56.062018l-71.544331 84.308558a71.84368 71.84368 0 0 1-54.984363 25.492532H158.642819a72.17895 72.17895 0 0 1-72.107107-72.107107v-86.535712a43.267856 43.267856 0 0 0-86.535712 0V737.345148A158.810454 158.810454 0 0 0 158.642819 895.99994h253.033439a158.331496 158.331496 0 0 0 121.008705-56.062018l71.544331-84.308558a71.84368 71.84368 0 0 1 54.984363-25.492532h404.455968a158.810454 158.810454 0 0 0 158.642819-158.642819V30.64281900000003a158.810454 158.810454 0 0 0-158.642819-158.642819z m72.107107 540.456054l-1031.387865-9.866532a14.476501 14.476501 0 0 1-14.248997-14.368736V30.64281900000003a72.17895 72.17895 0 0 1 72.107107-72.095133h901.422648a72.17895 72.17895 0 0 1 72.107107 72.107107V412.44408z"  horiz-adv-x="1222" />

    
    <glyph glyph-name="gukeyingxiao-fill" unicode="&#58985;" d="M805.2591526367187 170.55850664062496c-52.0617375 77.685570703125-129.21751582031249 85.283560546875-180.32304375 89.49605185546875-19.731514746093747 1.6022970703125001-43.417085449218746 8.231155664062499-69.9066755859375 44.99353916015625s10.1177314453125 52.33309365234375 10.1177314453125 52.33309365234375 63.52333066406251 42.6417802734375 97.90811191406249 117.34242714843748 8.60588701171875 175.16726455078125 8.6058861328125 175.16726455078125S644.7709979492188 832.0875808593751 447.0681983398437 833.8449389648438C281.66977724609376 832.0875808593751 235.15147197265622 649.8908830078126 235.15147197265622 649.8908830078126s-16.035894140625-100.53122783203126 18.348887109375-175.16726455078125 99.31658291015626-117.34242626953124 99.31658291015626-117.34242714843748 37.318018359375-15.5061017578125 10.82842734375-52.33309365234375-49.890883007812505-43.39124208984375-69.544866796875-44.99353916015625c-51.01507529296875-4.1608037109375-128.08040185546875-11.810481152343751-180.14213935546877-89.49605185546875S60.811198437500025 23.18592978515619 62.37473046874999-4.324479199218786s3.35965517578125-61.6496765625 45.6654708984375-61.64967744140625h703.3050966796875c42.30581484375 0 44.01148623046875 34.1780326171875 45.5750173828125 61.64967744140625s0.40057470703125 97.2103376953125-51.66116279296875 174.88298583984374zM1333.590810839844 170.55850664062496c-52.0617375 77.685570703125-129.21751582031249 85.283560546875-180.32304375 89.49605185546875-19.731514746093747 1.6022970703125001-43.417085449218746 8.231155664062499-69.9066755859375 44.99353916015625s10.1177314453125 52.33309365234375 10.1177314453125 52.33309365234375 63.52333066406251 42.6417802734375 97.90811191406249 117.34242714843748 8.12778134765625 175.16726455078125 8.12778134765625 175.16726455078125S1172.2756642578124 832.0875808593751 974.4436469726562 833.8449389648438C810.1694181640626 832.0875808593751 762.9533377929688 649.8908830078126 762.9533377929688 649.8908830078126s-15.751615429687503-100.51830615234375 18.6331658203125-175.15434287109375 99.4974873046875-117.34242626953124 99.49748818359375-117.34242714843748 37.36970595703125-15.5061017578125 10.89303662109375-52.33309365234375-48.76669072265626-40.81981376953125-69.51902431640625-44.99353916015625c-11.83632451171875-2.37760224609375-25.5333814453125-2.1579328125000004-39.798994921875-4.4063173828125 17.237616503906253-9.626704980468752 46.82842822265625-30.40488193359375 71.74156552734375-69.441493359375 43.09404169921876-67.54199589843749 49.78750869140625-111.35965517578124 51.35104072265625-142.95333779296874s4.04450859375-62.02440791015624-5.01363984375-90.45226142578126c-2.00287177734375-6.30581484375-7.300789453125-13.645369335937499-11.82340283203125-18.81407021484375h450.83991357421877c42.30581484375 0 44.01148623046875 34.1780326171875 45.575018261718746 61.6496765625s0.3359654296875 97.23618105468749-51.73869375 174.90883007812502z"  horiz-adv-x="1506" />

    
    <glyph glyph-name="label-ka" unicode="&#59005;" d="M0 896h1024v-1024H0zM453.29 683.69v-234.84H208.21v-47.79h245.08v-340.64h50.52V284.33000000000004c58.71-28 130.39-68.27 216.41-120.83l28 41.64c-82.6 48.47-163.84 90.79-244.39 127v68.93H815.1v47.78H503.81v102.4h221.86V599H503.81v84.69h-50.52z"  horiz-adv-x="1024" />

    
    <glyph glyph-name="label-wai" unicode="&#59006;" d="M0 896h1024v-1024H0zM329 413.35l-25.9-38.22c36.18-17.75 72.36-42.33 107.86-72.36-47.79-73.73-114.69-135.17-200-184.32l33.45-41.64c177.49 105.81 277.16 262.14 300.37 469v43h-165.9a828.69 828.69 0 0 1 24.58 88.06l-49.15 8.19C327 562.1800000000001 273.75 463.87 195.93 391.51l33.45-41.64c54.61 50.52 99 114 131.75 191.83H496.3c-10.24-73-31.4-139.95-62.81-200A565.29 565.29 0 0 1 329 413.35z m275.8 271v-624h50.52V423.59C695 392.19 742.06 347.82000000000005 798 291.84000000000003l30 45.06c-58.63 52.56-116 99.67-172.64 141.31V684.37h-50.52z"  horiz-adv-x="1024" />

    
    <glyph glyph-name="success-fill" unicode="&#59012;" d="M512 384zM0 384c0-282.765363 229.224643-512 512-512s512 229.224643 512 512S794.775357 896 512 896 0 666.765363 0 384M425.917077 182.560162a55.839463 55.839463 0 0 0-39.928165 16.690873L232.872648 353.92644600000006a33.561646 33.561646 0 1 0 47.773873 47.164208L425.917077 254.35090200000002l317.396423 321.034434A33.561646 33.561646 0 1 0 791.07738 528.20114L465.745296 199.251035a55.609589 55.609589 0 0 0-39.828219-16.690873z"  horiz-adv-x="1024" />

    
    <glyph glyph-name="success-circle" unicode="&#59013;" d="M511.810174 896C229.139657 896 0 666.8503519999999 0 384.189826s229.139657-511.810174 511.810174-511.810175 511.810174 229.149648 511.810175 511.810175S794.480692 896 511.810174 896z m0-958.240365c-246.553671 0-446.430191 199.87652-446.430191 446.430191S265.256503 830.620017 511.810174 830.620017s446.430191-199.87652 446.430191-446.430191-199.87652-446.430191-446.430191-446.430191zM425.759166 182.82467299999996a55.81876 55.81876 0 0 0-39.91336 16.684684L232.786309 354.127422a33.549203 33.549203 0 1 0 47.756162 47.146721L425.759166 254.64873999999998l317.278748 320.855465A33.549203 33.549203 0 1 0 790.784085 528.3974479999999L465.572619 199.50935700000002a55.588971 55.588971 0 0 0-39.813453-16.684684z"  horiz-adv-x="1024" />

    
    <glyph glyph-name="fail-fill" unicode="&#59014;" d="M511.910153 896C229.134796 896 0.000104 666.865308 0.000104 384.089951S229.134796-128 511.910153-128s511.910049 229.134692 511.910049 511.910049S794.515603 896 511.910153 896zM692.811223 248.34418700000003a31.912548 31.912548 0 0 0-45.135317-45.135317L511.910153 338.95463400000006 376.164389 203.20887000000005A31.912548 31.912548 0 0 0 331.009083 248.34418700000003l135.765753 135.745764L331.009083 519.8357149999999a31.912548 31.912548 0 1 0 45.135317 45.135316L511.910153 429.225267l135.745764 135.745764A31.912548 31.912548 0 0 0 692.811223 519.8357149999999L557.215377 384.089951 692.811223 248.34418700000003z"  horiz-adv-x="1024" />

    
    <glyph glyph-name="fail-circle" unicode="&#59015;" d="M692.364431 249.14379399999996a31.900716 31.900716 0 0 0-45.118582-45.118583L511.530431 339.720647 375.834995 204.025211A31.900716 31.900716 0 1 0 330.696431 249.14379399999996l135.715417 135.695436L330.696431 520.534665a31.900716 31.900716 0 0 0 45.118583 45.118583L511.530431 429.957812l135.695436 135.695436A31.900716 31.900716 0 0 0 692.364431 520.534665L556.818858 384.83923 692.364431 249.14379399999996zM511.810174 896C229.139657 896 0 666.8503519999999 0 384.189826s229.139657-511.810174 511.810174-511.810175 511.810174 229.149648 511.810175 511.810175S794.480692 896 511.810174 896z m0-958.240365c-246.553671 0-446.430191 199.87652-446.430191 446.430191S265.256503 830.620017 511.810174 830.620017s446.430191-199.87652 446.430191-446.430191-199.87652-446.430191-446.430191-446.430191z"  horiz-adv-x="1024" />

    
    <glyph glyph-name="warning-fill" unicode="&#59016;" d="M511.488 896C228.864 896 0 667.136 0 384.512s228.864-511.488 511.488-511.488 511.488 228.864 511.488 511.488c0.512 282.624-228.864 511.488-511.488 511.488zM457.216 592.896v1.536c0.512 26.112 22.016 46.592 47.616 46.592 26.112-0.512 46.592-22.016 46.592-47.616V336.384c-0.512-26.112-22.016-46.592-47.616-46.592s-46.592 22.016-46.592 47.616V592.896z m47.616-436.736c-26.112-0.512-47.616 20.48-47.616 46.592v1.536c0.512 26.112 22.016 46.592 47.616 46.592s46.592-22.016 46.592-47.616c-0.512-26.112-20.992-47.104-46.592-47.104z"  horiz-adv-x="1024" />

    
    <glyph glyph-name="warning-circle" unicode="&#59017;" d="M511.810174 896C229.139657 896 0 666.8503519999999 0 384.189826s229.139657-511.810174 511.810174-511.810175 511.810174 229.149648 511.810175 511.810175S794.480692 896 511.810174 896z m0-958.240365c-246.553671 0-446.430191 199.87652-446.430191 446.430191S265.256503 830.620017 511.810174 830.620017s446.430191-199.87652 446.430191-446.430191-199.87652-446.430191-446.430191-446.430191zM551.223994 593.5176690000001a47.126739 47.126739 0 1 1-94.243488 0v-255.515444a47.126739 47.126739 0 1 1 94.243488 0V593.5176690000001zM551.323902 203.26590799999997a47.126739 47.126739 0 1 1-94.243488 0 47.126739 47.126739 0 0 1 94.243488 0z"  horiz-adv-x="1024" />

    
    <glyph glyph-name="tip-fill" unicode="&#59018;" d="M513.536 893.44c-282.112 0-510.976-228.864-510.976-510.976S231.424-128 513.536-128s510.976 228.864 510.976 510.976-228.864 510.464-510.976 510.464z m39.936-463.872v-254.976c0.512-26.112-20.48-47.104-46.592-47.616s-47.104 20.48-47.616 46.592v256c-0.512 26.112 20.48 47.104 46.592 47.616 26.112 0.512 47.104-20.48 47.616-46.592v-1.024z m-46.08 87.04c-26.112-0.512-47.104 20.48-47.616 46.592v1.536c0.512 26.112 21.504 46.592 47.616 46.592 25.6-0.512 46.08-20.992 46.592-46.592 0-26.624-20.992-47.616-46.592-48.128z"  horiz-adv-x="1027" />

    
    <glyph glyph-name="tip-circle" unicode="&#59019;" d="M514.52768 896C231.867153 896 2.717505 666.8503519999999 2.717505 384.189826S231.867153-127.62034900000003 514.52768-127.62034900000003s511.810174 229.149648 511.810174 511.810175S797.198197 896 514.52768 896z m0-958.240365c-246.553671 0-446.430191 199.87652-446.430191 446.430191S267.974008 830.620017 514.52768 830.620017s446.430191-199.87652 446.430191-446.430191S761.081351-62.240365 514.52768-62.240365zM554.221242 173.54319299999997a47.126739 47.126739 0 1 0-94.243487 0V429.058638a47.126739 47.126739 0 1 0 94.243487 0v-255.515445zM554.321151 563.794954a47.126739 47.126739 0 1 0-94.243488 0 47.126739 47.126739 0 0 0 94.243488 0z"  horiz-adv-x="1027" />

    
    <glyph glyph-name="biyan" unicode="&#59024;" d="M1013.76 560.355556c10.808889 16.497778 7.395556 38.115556-7.395556 50.631111-16.497778 12.515556-38.115556 9.102222-50.631111-7.395556-1.706667-1.706667-203.093333-239.502222-442.026666-239.502222-232.106667 0-442.026667 239.502222-443.733334 241.777778-12.515556 14.791111-36.408889 16.497778-50.631111 3.413333-14.222222-12.515556-16.497778-36.408889-3.413333-50.631111 3.413333-5.688889 47.217778-54.613333 116.053333-109.226667L38.684444 353.28c-14.222222-14.791111-12.515556-38.115556 1.706667-50.631111 3.413333-7.395556 12.515556-10.808889 21.617778-10.808889 9.671111 0 18.773333 3.982222 25.6 10.808889l99.555555 103.537778c47.217778-32.426667 103.537778-63.715556 164.977778-85.333334l-38.115555-129.137777c-5.688889-19.911111 5.688889-39.822222 25.6-45.511112h10.808889c16.497778 0 30.72 11.377778 34.702222 27.306667l38.115555 129.137778c29.013333-5.688889 59.733333-9.102222 90.453334-9.102222s61.44 3.413333 90.453333 9.102222l38.115556-126.862222c3.413333-16.497778 19.911111-27.306667 34.702222-27.306667 3.413333 0 7.395556 0 9.102222 1.706667 19.911111 5.688889 30.72 25.6 25.6 45.511111l-38.115556 126.862222c61.44 21.617778 117.76 52.906667 164.977778 85.333333l97.848889-101.831111c6.826667-6.826667 15.928889-10.808889 25.6-10.808889 9.671111 0 18.773333 3.982222 25.6 10.808889 14.222222 13.653333 14.791111 36.408889 1.706667 50.631111l-92.16 96.142223c72.817778 54.613333 116.622222 107.52 116.622222 107.52z"  horiz-adv-x="1024" />

    
    <glyph glyph-name="label-pin" unicode="&#59053;" d="M569.344 391.168c0-15.36-1.024-28.672-1.536-42.496h116.736V510.464h-115.2v-119.296zM0 896v-1024h1024V896H0z m518.144-206.848c24.576-34.816 47.616-71.168 68.096-109.056l-39.936-19.968c-20.48 37.888-43.52 74.24-69.12 109.056l40.96 19.968z m-174.08-565.76c0-38.912-20.48-58.88-59.904-58.88H227.328l-10.24 47.616c16.896-1.024 33.28-2.56 49.664-2.56 17.92 0 26.624 8.704 26.624 26.624v169.472c-27.136-11.264-55.296-21.504-83.968-31.232l-12.288 49.152c32.768 9.216 64.512 19.968 96.256 32.256V513.024H206.848v47.104h86.528V683.52h50.688v-123.392h69.632v-47.104H344.064v-135.168c23.04 11.776 46.08 24.064 68.096 36.864v-50.176c-22.528-13.312-45.056-25.6-68.096-36.352v-204.8z m480.768 179.2h-92.16V61.440000000000055h-47.616v241.152h-120.832c-5.632-49.664-15.872-92.16-30.208-127.488-22.016-49.664-57.344-88.576-106.496-116.736l-27.136 42.496c45.056 27.648 76.8 63.488 94.72 108.032 9.216 27.136 16.384 58.88 20.992 94.208H428.032v45.568h92.16c1.024 14.336 1.536 28.672 1.536 42.496V510.464H440.32v45.568h224.256c23.552 41.984 43.008 87.04 60.928 135.68l45.568-16.384c-14.848-40.96-33.792-80.896-55.808-119.296h95.744v-45.568h-78.336V348.15999999999997h92.16v-45.568z"  horiz-adv-x="1024" />

    
    <glyph glyph-name="label-piao" unicode="&#59054;" d="M609.792 520.704h109.056V450.56h-109.056zM461.312 615.9359999999999H563.2v-54.784h-101.888zM305.664 520.704H414.72V450.56H305.664zM0 896v-1024h1024V896H0z m219.648-788.992c65.536 27.136 120.832 58.88 165.888 94.208l32.256-29.184c-45.568-39.424-101.888-73.728-168.448-102.912l-29.696 37.888z m323.584 12.288c0-37.376-20.48-56.832-61.44-56.832h-61.44l-9.728 43.52c18.944-1.536 37.376-2.56 55.296-2.56 18.944 0 29.184 8.704 29.184 26.624v95.744H219.648v43.008H803.84v-43.008h-260.608v-106.496z m-256 199.168v40.96h452.608v-40.96H287.232z m488.448-250.368c-37.376 32.768-89.6 67.072-156.16 103.936l32.768 30.72c62.976-33.28 115.2-67.072 157.696-100.352l-34.304-34.304z m39.424 547.84h-205.312v-54.784h156.16V409.6H258.56V561.664H414.72V615.9359999999999H208.896v43.008h606.208v-43.008zM461.312 520.704H563.2V450.56h-101.888z"  horiz-adv-x="1024" />

    
    <glyph glyph-name="label-quan" unicode="&#59055;" d="M606.208 412.16H435.712c-25.6-33.792-55.296-64.512-88.064-91.648h339.968c-35.84 30.208-62.464 59.904-81.408 91.648zM0 896v-1024h1024V896H0z m353.792-209.408c18.944-28.672 36.352-58.88 49.664-91.648l-39.424-18.432c-16.384 36.352-33.28 68.096-52.736 96.256l42.496 13.824z m441.344-440.32c-35.84 19.968-69.632 43.008-101.888 69.12-2.048-59.904-5.632-109.056-10.24-146.944-5.632-38.4-14.848-65.024-28.16-79.872-12.8-14.336-33.28-22.528-61.44-24.064H491.52l-12.8 45.568c32.256-1.536 61.952-2.048 90.624-2.048s47.616 10.24 57.344 30.72c9.728 22.016 15.872 67.072 18.432 136.704h-167.424c-13.824-51.2-32.768-92.16-56.832-122.88-29.184-34.304-73.216-65.536-131.584-93.696l-30.72 38.912c53.248 23.04 93.696 49.152 120.832 77.312 23.04 26.112 40.448 59.392 52.736 100.352H336.384V312.32000000000005c-34.816-26.624-72.192-49.664-112.128-69.12l-27.136 41.472c72.192 31.232 132.608 73.728 179.712 126.976H218.624v45.056h193.024c15.872 24.064 29.184 49.152 40.96 75.264H256v43.52h214.528c12.288 36.864 20.992 75.776 28.16 116.736l48.64-6.144c-6.144-37.376-15.36-74.24-26.624-110.592h138.752l-34.816 19.968c22.016 27.136 39.424 58.88 53.76 94.72l40.96-14.848c-15.872-38.4-34.816-71.168-57.856-99.84H768v-43.52h-264.192c-10.752-26.112-23.04-51.2-37.376-75.264h339.456v-45.056h-149.504c34.816-46.592 91.648-88.576 170.496-125.44l-31.744-39.936z"  horiz-adv-x="1024" />

    
    <glyph glyph-name="label-shou" unicode="&#59056;" d="M341.504 402.432h188.416v-51.2H341.504zM341.504 488.96h188.416v-47.616H341.504zM0 896v-1024h1024V896H0z m753.152-839.168h-48.64v33.28H342.528v-33.28h-48.64V256H752.64v-199.168z m43.52 252.928H294.4V508.416c-24.576-28.672-51.712-55.808-80.384-80.384l-15.36 48.128c71.168 65.024 121.344 135.68 151.04 212.48l47.616-9.728c-8.192-20.48-16.896-40.448-27.136-59.904h169.472c-9.728 22.016-20.48 43.008-33.28 62.976l50.688 8.192c11.776-23.04 22.016-46.592 30.72-71.168h198.656v-40.96h-207.36v-49.664h177.664v-38.912h-177.664v-47.616H757.76v-38.912h-178.688v-51.2h218.624v-41.984zM704.512 214.01599999999996H342.528v-79.872h361.984zM341.504 570.3679999999999v-42.496h188.416v49.664H346.112c-2.048-2.048-3.584-4.608-4.608-7.168z"  horiz-adv-x="1024" />

    
    <glyph glyph-name="label-tuan" unicode="&#59058;" d="M740.864 637.44H283.136v-475.648h457.216V637.44zM696.32 474.624h-84.48v-206.848c0-40.448-19.968-60.928-57.856-60.928H476.16l-10.24 45.568c25.088-2.048 49.152-3.584 71.68-3.584 17.92 0 27.136 10.24 27.136 30.72V467.968c-53.248-91.648-124.928-163.328-215.04-215.552l-26.112 43.52c85.504 43.52 153.088 103.936 202.752 178.688H335.36v44.544h229.376V602.624h47.104v-83.456H696.32v-44.544zM0 896v-1024h1024V896H0z m788.48-810.496h-47.616v30.72H283.136v-30.72H235.52V682.496h552.96v-596.992z"  horiz-adv-x="1024" />

    
    <glyph glyph-name="label-zu" unicode="&#59059;" d="M552.448 484.864h164.864V611.8399999999999h-164.864zM552.448 310.27200000000005h164.864V438.784h-164.864zM552.448 134.65599999999995h164.864v129.024h-164.864zM0 896v-1024h1024V896H0z m369.152-837.12h-49.152V375.808c-25.088-66.048-60.928-126.976-105.984-181.76l-20.48 50.688c56.832 61.952 96.768 131.584 121.344 209.408h-102.4v47.104h108.032V602.624c-31.232-4.608-62.976-8.704-95.744-12.288L215.04 634.3679999999999c86.016 8.192 161.792 23.04 227.84 45.056l16.896-45.568c-28.672-8.192-59.392-15.872-90.624-22.528v-110.08h94.72v-47.104H369.152v-38.4c32.768-30.208 66.048-63.488 100.352-100.864l-26.624-40.96c-28.672 38.912-53.248 70.144-73.728 93.696v-308.736z m454.656 28.672H440.832v47.104h64V658.432h261.632v-523.776h57.344v-47.104z"  horiz-adv-x="1024" />

    
    <glyph glyph-name="label-cu" unicode="&#59060;" d="M477.696 613.376h250.368v-128.512h-250.368zM0 896v-1024h1024V896H0z m325.632-837.632h-48.64V437.76c-19.968-29.184-41.472-56.832-65.024-83.456l-16.384 51.712c67.072 81.408 115.2 174.08 145.408 279.04l44.544-20.48C369.152 612.864 349.184 563.712 325.632 517.12v-458.752z m491.52 12.8H747.52c-94.72 0.512-159.232 10.752-192.512 30.208-40.96 20.992-73.728 56.832-97.792 106.496-20.48-59.392-45.568-109.568-75.776-151.04l-31.232 38.912C399.872 167.93600000000004 434.176 266.24 452.096 389.12l46.592-8.192c-6.144-40.96-13.824-78.336-23.04-114.176 10.24-29.184 24.064-54.784 40.96-76.288 20.992-26.112 45.056-43.52 72.192-54.784V439.296H430.08V658.432h346.112v-219.136h-139.264v-110.08h159.744v-45.056h-159.744v-160.256c24.576-4.096 53.76-6.144 88.064-7.68 42.496 0 76.288 0.512 100.864 2.048l-8.704-47.104z"  horiz-adv-x="1024" />

    
    <glyph glyph-name="label-ding" unicode="&#59061;" d="M0 896v-1024h1024V896H0z m282.112-216.576c45.568-34.816 84.48-69.632 116.224-104.96l-33.28-34.304c-29.184 33.792-68.608 69.12-117.76 105.984l34.816 33.28z m22.528-594.944l-18.432 43.52c10.24 8.704 15.872 18.432 15.872 29.184V429.568H201.216v47.104h147.456v-305.664c26.112 20.48 54.784 44.544 85.504 72.192l12.8-51.712c-44.032-39.936-91.648-75.776-142.336-107.008zM827.904 599.04h-143.36v-470.528c0-42.496-22.016-64-64-64h-89.6l-10.24 47.616c28.672-2.048 56.832-3.584 82.432-3.584 20.48 0 30.72 10.752 30.72 32.256V599.04H432.64v47.616h395.264V599.04z"  horiz-adv-x="1024" />

    
    <glyph glyph-name="label-fu" unicode="&#59062;" d="M0 896v-1024h1024V896H0z m341.504-360.448v-477.184h-49.152V454.144c-24.576-35.84-52.736-70.144-83.456-102.912l-14.848 51.2C266.24 485.888 318.976 582.656 351.744 691.712l45.568-22.016c-14.848-47.616-34.304-91.648-55.808-134.144z m479.232-45.568h-98.304v-356.352c0-46.592-22.016-69.632-64-69.632h-98.816l-10.752 48.64c32.256-2.048 62.976-3.584 92.672-3.584 20.992 0 32.256 12.288 32.256 36.864V489.984H411.648V537.6h261.632V684.544h49.152V537.6h98.304v-47.616zM434.176 390.656l40.448 24.576c51.712-61.44 92.16-115.2 120.32-161.28l-41.472-29.184c-29.696 50.176-69.632 105.472-119.296 165.888z"  horiz-adv-x="1024" />

    
    <glyph glyph-name="label-jia" unicode="&#59063;" d="M0 896v-1024h1024V896H0z m223.744-270.336h270.336c-7.168 18.944-14.848 37.888-24.064 55.808l49.664 8.704c8.192-18.944 15.872-40.96 23.04-65.024h256.512V506.88h-48.64V580.096H272.384V506.88h-48.64V625.664z m557.056-530.944c-75.264 60.928-129.024 137.728-161.792 231.424-13.824-4.096-28.16-8.192-41.472-11.776 11.264-34.304 17.408-70.144 17.92-106.496 0-53.76-7.68-91.648-22.016-112.128-16.384-23.04-54.784-35.328-113.152-35.328h-23.04l-16.384 43.008h32.768c40.448 0.512 65.536 6.656 75.776 18.432 12.288 14.848 18.432 43.52 18.432 86.016-0.512 12.288-1.536 23.04-2.56 34.304-76.8-60.416-176.64-109.056-300.032-146.432l-24.576 42.496c135.168 39.424 240.128 89.6 314.88 151.04-5.632 17.92-11.776 34.816-19.968 51.2-64-50.688-151.552-91.648-262.144-122.88l-24.576 42.496c114.688 30.208 203.264 68.096 265.728 116.224-8.192 12.8-17.92 24.576-27.136 35.328-5.632-2.56-10.24-4.608-14.848-7.68-47.104-22.016-109.056-43.52-185.856-65.536L241.664 378.88c65.536 14.336 124.928 32.768 177.664 55.296 24.576 10.752 48.64 22.016 70.144 34.304H307.712v45.568H716.8v-45.568h-156.16c-18.944-12.8-37.376-25.088-55.808-36.352 24.064-24.576 43.008-51.2 57.344-79.872 63.488 17.92 123.392 45.056 180.736 82.432l33.28-33.28c-36.864-24.576-76.288-44.544-117.248-60.928 32.256-86.016 84.48-154.112 157.184-205.312l-35.328-40.448z"  horiz-adv-x="1024" />

    
    <glyph glyph-name="label-pai" unicode="&#59064;" d="M0 896v-1024h1024V896H0z m336.384-772.608c0-38.4-20.48-57.344-59.904-57.344H213.504l-10.752 47.616c19.968-1.536 38.912-2.56 56.832-2.56 18.944 0 29.184 8.192 29.184 24.576v163.328c-24.576-9.728-49.664-18.944-75.264-27.136l-11.776 49.664c29.184 7.68 58.368 16.384 86.528 27.136v158.72H215.04v47.104h73.728V683.52h47.616v-129.024h60.928v-47.104H336.384v-139.264c22.528 10.752 44.544 22.016 66.048 34.304v-50.688c-22.016-11.776-43.52-22.528-66.048-32.768v-195.584z m236.544-63.488h-47.104V209.91999999999996H391.168v45.056h134.656V373.24800000000005H429.568v45.056h96.256V531.456h-107.52v44.544h107.008V685.056h47.104v-625.152z m250.368 150.016h-121.344v-150.016h-47.616V685.056h47.616v-109.056h116.736v-44.544h-116.736v-113.152h102.4v-45.056h-102.4v-118.272h121.344v-45.056z"  horiz-adv-x="1024" />

    
    <glyph glyph-name="label-dian" unicode="&#59065;" d="M339.968 438.784h353.792v-126.976H339.968zM0 896v-1024h1024V896H0z m290.816-411.136h185.856v199.68h48.64v-66.048h264.704v-46.592h-264.704v-86.528h217.6V266.24H290.816V484.864z m-49.152-422.912l-40.448 29.184c34.304 40.448 63.488 88.576 88.064 144.896l41.472-19.968c-25.6-59.392-54.784-110.592-89.088-154.112z m184.32-3.584c-9.728 55.808-20.48 104.96-33.28 147.968l45.568 9.728c13.824-45.056 26.112-94.208 36.864-146.944l-49.152-10.752z m159.744 1.536c-13.824 57.856-30.72 109.056-51.2 153.6l46.592 9.728c20.48-46.592 38.4-97.792 53.248-152.064l-48.64-11.264z m194.048-1.536c-24.064 46.592-56.832 96.768-98.304 153.088l39.424 25.088c43.52-57.344 76.288-107.008 99.84-149.504l-40.96-28.672z"  horiz-adv-x="1024" />

    
    <glyph glyph-name="label-yin" unicode="&#59067;" d="M534.528 613.8879999999999h195.072v-79.36h-195.072zM534.528 491.008h195.072v-77.824h-195.072zM0 896v-1024h1024V896H0z m288.256-211.456l47.616-9.728c-6.144-23.04-12.288-45.056-18.944-66.048h132.608v-47.104H300.544c-16.896-45.056-37.888-88.064-62.976-129.024l-39.424 25.088c41.472 68.096 71.68 143.36 90.112 226.816z m168.448-388.608H362.496v-160.256c25.088 8.192 50.688 19.968 76.288 33.28l8.192-42.496c-38.912-20.48-83.968-36.864-134.656-49.664l-18.944 40.448c14.848 4.096 22.528 10.752 22.528 20.48v158.208H215.552v45.568h100.352V431.104h-45.568V476.16h163.84v-45.056h-71.68v-89.6h94.208v-45.568z m342.528-230.912c-104.448 73.728-167.424 175.104-188.928 303.616h-75.776v-240.128c40.448 11.264 79.872 25.088 118.272 41.472l10.752-43.008c-47.616-19.968-108.032-38.912-180.224-56.832l-10.24 40.96c9.728 3.584 14.848 8.192 14.848 14.848v532.48h286.72v-289.28h-120.832c7.68-41.472 19.968-79.36 37.376-113.152 32.768 17.92 64 43.52 94.208 77.824l31.232-31.232c-30.72-36.864-65.536-65.024-103.936-83.968 28.16-43.52 65.536-80.384 112.128-111.104l-25.6-42.496z"  horiz-adv-x="1024" />

    
    </font>
</defs>
</svg>
